<svg width="31" height="31" viewBox="0 0 31 31" fill="none" xmlns="http://www.w3.org/2000/svg">
<path d="M22.3987 16.3149C22.3867 14.2809 23.3083 12.748 25.1693 11.6177C24.1284 10.1265 22.5537 9.30634 20.478 9.14827C18.5126 8.99319 16.3623 10.2935 15.575 10.2935C14.7429 10.2935 12.8402 9.20196 11.343 9.20196C8.25326 9.24967 4.96967 11.6654 4.96967 16.5804C4.96967 18.0328 5.2351 19.5329 5.76596 21.0778C6.47576 23.1118 9.03464 28.0953 11.7039 28.0148C13.0996 27.982 14.0868 27.0246 15.9031 27.0246C17.6656 27.0246 18.5782 28.0148 20.135 28.0148C22.8281 27.976 25.1425 23.4458 25.8165 21.4058C22.2048 19.7029 22.3987 16.4193 22.3987 16.3149ZM19.2642 7.21868C20.7763 5.42329 20.6391 3.78894 20.5943 3.20142C19.2582 3.27896 17.7134 4.11104 16.8336 5.134C15.8643 6.23151 15.2946 7.58849 15.4169 9.11845C16.8604 9.2288 18.1786 8.48619 19.2642 7.21868Z" fill="white"/>
</svg>
