<svg width="366" height="238" viewBox="0 0 366 238" fill="none" xmlns="http://www.w3.org/2000/svg">
<rect width="366" height="238" fill="#F5F5F5"/>
<path d="M22.002 55.01C22.002 48.9293 26.9313 44 33.012 44H183.002V193.655H33.0105C26.9306 193.655 22.002 188.727 22.002 182.647V55.01Z" fill="white"/>
<path d="M39.3282 62.6738H50.3367V73.6824H39.3282V62.6738Z" fill="#0C7FDA"/>
<path d="M58.0501 64.0053V64.8199H60.1527V71.6782H61.1545V64.8199H63.2461V64.0053H58.0501ZM67.1103 71.7773C68.8276 71.7773 70.2037 70.5664 70.2037 68.6509C70.2037 66.7464 68.8716 65.5465 67.1543 65.5465C65.448 65.5465 64.1049 66.7464 64.1049 68.6509C64.1049 70.5664 65.404 71.7773 67.1103 71.7773ZM67.1103 70.8966C66.0645 70.8966 65.1287 70.1811 65.1287 68.6509C65.1287 67.1317 66.0865 66.4161 67.1433 66.4161C68.1781 66.4161 69.1799 67.1317 69.1799 68.6509C69.1799 70.1811 68.1561 70.8966 67.1103 70.8966ZM71.741 64.1264V65.6455H70.9594V66.4712H71.741V70.0269C71.741 71.2379 72.3465 71.6782 73.4143 71.6782H74.317V70.8306H73.5794C72.963 70.8306 72.7428 70.6214 72.7428 70.0269V66.4712H74.317V65.6455H72.7428V64.1264H71.741ZM75.1565 68.6399C75.1565 70.5113 76.4005 71.7773 78.0077 71.7773C79.1196 71.7773 79.9012 71.2049 80.2645 70.5554V71.6782H81.2772V65.6455H80.2645V66.7464C79.9122 66.1189 79.1416 65.5465 78.0187 65.5465C76.4005 65.5465 75.1565 66.7574 75.1565 68.6399ZM80.2645 68.6509C80.2645 70.071 79.3177 70.8966 78.2169 70.8966C77.116 70.8966 76.1803 70.06 76.1803 68.6399C76.1803 67.2198 77.116 66.4161 78.2169 66.4161C79.3177 66.4161 80.2645 67.2528 80.2645 68.6509ZM82.9702 63.5319V71.6782H83.9719V63.5319H82.9702ZM93.8983 64.0053L91.4874 70.6214L89.0765 64.0053H88.0087L90.904 71.6782H92.0599L94.9551 64.0053H93.8983ZM98.6846 71.7773C100.402 71.7773 101.778 70.5664 101.778 68.6509C101.778 66.7464 100.446 65.5465 98.7286 65.5465C97.0223 65.5465 95.6793 66.7464 95.6793 68.6509C95.6793 70.5664 96.9783 71.7773 98.6846 71.7773ZM98.6846 70.8966C97.6388 70.8966 96.7031 70.1811 96.7031 68.6509C96.7031 67.1317 97.6608 66.4161 98.7176 66.4161C99.7524 66.4161 100.754 67.1317 100.754 68.6509C100.754 70.1811 99.7304 70.8966 98.6846 70.8966ZM103.095 63.5319V71.6782H104.097V63.5319H103.095ZM111.154 71.6782V65.6455H110.153V68.9591C110.153 70.2581 109.459 70.8966 108.424 70.8966C107.412 70.8966 106.74 70.2691 106.74 69.0472V65.6455H105.749V69.1793C105.749 70.9076 106.839 71.7663 108.226 71.7663C109.03 71.7663 109.767 71.414 110.153 70.7865V71.6782H111.154ZM121.554 68.2656V71.6782H122.544V68.1225C122.544 66.3941 121.477 65.5355 120.101 65.5355C119.176 65.5355 118.317 66.0088 117.965 66.8785C117.569 65.9758 116.743 65.5355 115.752 65.5355C114.96 65.5355 114.244 65.8767 113.848 66.5152V65.6455H112.846V71.6782H113.848V68.3536C113.848 67.0546 114.541 66.4051 115.554 66.4051C116.545 66.4051 117.205 67.0326 117.205 68.2656V71.6782H118.196V68.3536C118.196 67.0546 118.89 66.4051 119.902 66.4051C120.893 66.4051 121.554 67.0326 121.554 68.2656ZM126.753 66.3941C127.787 66.3941 128.668 67.0436 128.657 68.2215H124.848C124.958 67.0436 125.773 66.3941 126.753 66.3941ZM129.571 69.8178H128.492C128.272 70.4673 127.699 70.9296 126.797 70.9296C125.773 70.9296 124.914 70.2581 124.837 69.0362H129.659C129.681 68.827 129.692 68.6509 129.692 68.4307C129.692 66.7794 128.547 65.5465 126.797 65.5465C125.035 65.5465 123.813 66.7464 123.813 68.6509C123.813 70.5664 125.079 71.7773 126.797 71.7773C128.294 71.7773 129.263 70.9186 129.571 69.8178ZM133.476 64.0053V64.8199H135.578V71.6782H136.58V64.8199H138.672V64.0053H133.476ZM140.907 68.3977C140.907 66.9996 141.633 66.5703 142.591 66.5703H142.855V65.5355C141.898 65.5355 141.248 65.9538 140.907 66.6253V65.6455H139.905V71.6782H140.907V68.3977ZM143.637 68.6399C143.637 70.5113 144.881 71.7773 146.489 71.7773C147.6 71.7773 148.382 71.2049 148.745 70.5554V71.6782H149.758V65.6455H148.745V66.7464C148.393 66.1189 147.622 65.5465 146.5 65.5465C144.881 65.5465 143.637 66.7574 143.637 68.6399ZM148.745 68.6509C148.745 70.071 147.799 70.8966 146.698 70.8966C145.597 70.8966 144.661 70.06 144.661 68.6399C144.661 67.2198 145.597 66.4161 146.698 66.4161C147.799 66.4161 148.745 67.2528 148.745 68.6509ZM151.077 68.6399C151.077 70.5113 152.321 71.7773 153.939 71.7773C155.04 71.7773 155.821 71.2159 156.185 70.5443V71.6782H157.198V63.5319H156.185V66.7244C155.766 66.0308 154.897 65.5465 153.95 65.5465C152.321 65.5465 151.077 66.7574 151.077 68.6399ZM156.185 68.6509C156.185 70.071 155.238 70.8966 154.137 70.8966C153.036 70.8966 152.101 70.06 152.101 68.6399C152.101 67.2198 153.036 66.4161 154.137 66.4161C155.238 66.4161 156.185 67.2528 156.185 68.6509ZM161.455 66.3941C162.49 66.3941 163.371 67.0436 163.36 68.2215H159.551C159.661 67.0436 160.476 66.3941 161.455 66.3941ZM164.274 69.8178H163.195C162.975 70.4673 162.402 70.9296 161.499 70.9296C160.476 70.9296 159.617 70.2581 159.54 69.0362H164.362C164.384 68.827 164.395 68.6509 164.395 68.4307C164.395 66.7794 163.25 65.5465 161.499 65.5465C159.738 65.5465 158.516 66.7464 158.516 68.6509C158.516 70.5664 159.782 71.7773 161.499 71.7773C162.997 71.7773 163.965 70.9186 164.274 69.8178Z" fill="#90A2B2"/>
<rect x="22.002" y="92.356" width="161" height="0.917379" fill="#F0F3F5"/>
<path d="M57.3187 122.952H54.8693C51.8327 122.952 50.5851 120.797 52.108 118.164L53.3372 116.045L54.5665 113.925C56.0894 111.293 58.5755 111.293 60.0983 113.925L61.3276 116.045L62.5569 118.164C64.0797 120.797 62.8321 122.952 59.7956 122.952H57.3187Z" fill="#007F5F"/>
<path d="M72.2668 113.732V121.952H73.4484V112.666H71.0338V113.732H72.2668ZM76.021 122.029C76.4449 122.029 76.7916 121.682 76.7916 121.232C76.7916 120.783 76.4449 120.436 76.021 120.436C75.5715 120.436 75.2248 120.783 75.2248 121.232C75.2248 121.682 75.5715 122.029 76.021 122.029ZM79.6552 119.46H78.5764C78.7048 120.821 79.6038 121.965 81.4533 121.965C83.8935 121.965 84.5999 120.231 84.5999 117.135C84.5999 114.259 83.8678 112.486 81.3505 112.486C79.347 112.486 78.2938 113.77 78.2938 115.543C78.2938 117.508 79.5653 118.574 81.2734 118.574C82.2752 118.574 83.1999 118.124 83.5724 117.341C83.6109 120.064 82.8789 120.988 81.5175 120.988C80.4386 120.988 79.8222 120.423 79.6552 119.46ZM81.4661 117.585C80.079 117.585 79.4112 116.712 79.4112 115.517C79.4112 114.284 80.1689 113.462 81.3762 113.462C82.7119 113.462 83.4311 114.348 83.4311 115.607C83.4311 116.853 82.5835 117.585 81.4661 117.585ZM86.101 121.014V121.849H92.2787V120.873H87.8606C89.5173 119.524 92.0089 117.559 92.0089 115.247C92.0089 113.526 90.8787 112.499 89.132 112.499C87.4624 112.499 86.2166 113.526 86.1396 115.504H87.2698C87.3211 114.336 87.9376 113.501 89.1449 113.501C90.4035 113.501 90.853 114.271 90.853 115.299C90.853 117.2 88.5413 119.049 86.101 121.014ZM98.0992 119.884V121.952H99.2551V119.884H100.539V118.869H99.2551V112.756H97.8552L93.3472 118.998V119.884H98.0992ZM98.1506 118.869H94.6957L98.1506 113.976V118.869ZM102.272 122.029C102.696 122.029 103.043 121.682 103.043 121.232C103.043 120.783 102.696 120.436 102.272 120.436C101.823 120.436 101.476 120.783 101.476 121.232C101.476 121.682 101.823 122.029 102.272 122.029ZM109.579 114.875H110.658C110.504 113.578 109.605 112.473 107.833 112.473C105.482 112.473 104.545 114.271 104.545 117.187C104.545 119.999 105.2 121.977 107.948 121.977C109.978 121.977 110.979 120.59 110.979 118.895C110.979 116.943 109.811 115.8 108.077 115.8C106.972 115.8 105.958 116.313 105.559 117.225C105.547 114.464 106.343 113.449 107.82 113.449C108.873 113.449 109.4 113.976 109.579 114.875ZM107.833 116.789C109.168 116.789 109.849 117.623 109.849 118.933C109.849 120.192 109.091 121.001 107.884 121.001C106.42 121.001 105.701 120.038 105.701 118.805C105.701 117.418 106.767 116.789 107.833 116.789ZM114.251 117.123C113.211 117.431 112.53 118.278 112.53 119.447C112.53 121.13 113.853 122.209 115.805 122.209C117.77 122.209 119.106 121.13 119.106 119.447C119.106 118.291 118.425 117.444 117.372 117.123C118.284 116.763 118.862 115.992 118.862 114.991C118.862 113.642 117.822 112.525 115.805 112.525C113.789 112.525 112.762 113.629 112.762 114.991C112.762 116.031 113.301 116.75 114.251 117.123ZM117.732 115.132C117.732 116.095 116.948 116.737 115.805 116.737C114.675 116.737 113.892 116.108 113.892 115.145C113.892 114.053 114.662 113.501 115.805 113.501C116.974 113.501 117.732 114.066 117.732 115.132ZM115.805 117.636C117.025 117.636 117.95 118.214 117.95 119.409C117.95 120.488 117.128 121.232 115.805 121.232C114.483 121.232 113.648 120.5 113.648 119.409C113.648 118.176 114.611 117.636 115.805 117.636ZM122.354 117.123C121.313 117.431 120.633 118.278 120.633 119.447C120.633 121.13 121.956 122.209 123.908 122.209C125.873 122.209 127.208 121.13 127.208 119.447C127.208 118.291 126.528 117.444 125.475 117.123C126.386 116.763 126.964 115.992 126.964 114.991C126.964 113.642 125.924 112.525 123.908 112.525C121.891 112.525 120.864 113.629 120.864 114.991C120.864 116.031 121.403 116.75 122.354 117.123ZM125.834 115.132C125.834 116.095 125.051 116.737 123.908 116.737C122.777 116.737 121.994 116.108 121.994 115.145C121.994 114.053 122.765 113.501 123.908 113.501C125.076 113.501 125.834 114.066 125.834 115.132ZM123.908 117.636C125.128 117.636 126.053 118.214 126.053 119.409C126.053 120.488 125.231 121.232 123.908 121.232C122.585 121.232 121.75 120.5 121.75 119.409C121.75 118.176 122.713 117.636 123.908 117.636ZM129.326 122.029C129.75 122.029 130.096 121.682 130.096 121.232C130.096 120.783 129.75 120.436 129.326 120.436C128.876 120.436 128.529 120.783 128.529 121.232C128.529 121.682 128.876 122.029 129.326 122.029ZM131.432 115.003H132.575C132.69 114.104 133.345 113.488 134.437 113.488C135.554 113.488 136.145 114.104 136.145 114.991C136.145 116.069 135.31 116.545 133.756 116.557H133.448V117.534H133.743C135.413 117.534 136.325 118.034 136.325 119.344C136.325 120.295 135.734 121.027 134.488 121.027C133.255 121.027 132.536 120.269 132.421 119.28H131.29C131.432 121.078 132.742 122.016 134.501 122.016C136.44 122.016 137.442 120.886 137.442 119.447C137.442 118.112 136.71 117.315 135.631 117.058V116.994C136.607 116.776 137.275 115.941 137.275 114.875C137.275 113.539 136.286 112.486 134.475 112.486C132.754 112.486 131.547 113.411 131.432 115.003ZM138.995 115.003H140.138C140.253 114.104 140.908 113.488 142 113.488C143.117 113.488 143.708 114.104 143.708 114.991C143.708 116.069 142.873 116.545 141.319 116.557H141.011V117.534H141.306C142.976 117.534 143.888 118.034 143.888 119.344C143.888 120.295 143.297 121.027 142.051 121.027C140.818 121.027 140.099 120.269 139.984 119.28H138.853C138.995 121.078 140.305 122.016 142.064 122.016C144.003 122.016 145.005 120.886 145.005 119.447C145.005 118.112 144.273 117.315 143.194 117.058V116.994C144.17 116.776 144.838 115.941 144.838 114.875C144.838 113.539 143.849 112.486 142.038 112.486C140.317 112.486 139.11 113.411 138.995 115.003ZM146.558 115.003H147.701C147.816 114.104 148.471 113.488 149.563 113.488C150.68 113.488 151.271 114.104 151.271 114.991C151.271 116.069 150.436 116.545 148.882 116.557H148.574V117.534H148.869C150.539 117.534 151.451 118.034 151.451 119.344C151.451 120.295 150.86 121.027 149.614 121.027C148.381 121.027 147.662 120.269 147.547 119.28H146.416C146.558 121.078 147.868 122.016 149.627 122.016C151.566 122.016 152.568 120.886 152.568 119.447C152.568 118.112 151.836 117.315 150.757 117.058V116.994C151.733 116.776 152.401 115.941 152.401 114.875C152.401 113.539 151.412 112.486 149.601 112.486C147.88 112.486 146.673 113.411 146.558 115.003Z" fill="#007F5F"/>
<rect x="22.002" y="141.63" width="161" height="0.917379" fill="#F0F3F5"/>
<path d="M57.3383 161.224H59.7877C62.8242 161.224 64.0718 163.38 62.549 166.013L61.3197 168.132L60.0904 170.251C58.5676 172.884 56.0815 172.884 54.5586 170.251L53.3293 168.132L52.1 166.013C50.6047 163.38 51.8432 161.224 54.8889 161.224H57.3383Z" fill="#BA2D0B"/>
<path d="M72.2587 163.005V171.225H73.4403V161.939H71.0258V163.005H72.2587ZM76.013 171.302C76.4368 171.302 76.7836 170.955 76.7836 170.506C76.7836 170.056 76.4368 169.709 76.013 169.709C75.5635 169.709 75.2167 170.056 75.2167 170.506C75.2167 170.955 75.5635 171.302 76.013 171.302ZM79.6471 168.733H78.5683C78.6967 170.095 79.5958 171.238 81.4452 171.238C83.8854 171.238 84.5918 169.504 84.5918 166.409C84.5918 163.532 83.8597 161.759 81.3425 161.759C79.3389 161.759 78.2857 163.044 78.2857 164.816C78.2857 166.781 79.5572 167.847 81.2654 167.847C82.2672 167.847 83.1919 167.398 83.5643 166.614C83.6029 169.337 82.8708 170.262 81.5094 170.262C80.4306 170.262 79.8141 169.697 79.6471 168.733ZM81.458 166.858C80.071 166.858 79.4031 165.985 79.4031 164.79C79.4031 163.558 80.1609 162.736 81.3681 162.736C82.7038 162.736 83.4231 163.622 83.4231 164.88C83.4231 166.126 82.5754 166.858 81.458 166.858ZM86.093 170.287V171.122H92.2706V170.146H87.8525C89.5093 168.798 92.0009 166.833 92.0009 164.521C92.0009 162.8 90.8707 161.772 89.124 161.772C87.4544 161.772 86.2086 162.8 86.1315 164.778H87.2617C87.3131 163.609 87.9296 162.774 89.1368 162.774C90.3955 162.774 90.845 163.545 90.845 164.572C90.845 166.473 88.5332 168.322 86.093 170.287ZM98.0911 169.157V171.225H99.247V169.157H100.531V168.143H99.247V162.029H97.8471L93.3391 168.271V169.157H98.0911ZM98.1425 168.143H94.6876L98.1425 163.249V168.143ZM102.264 171.302C102.688 171.302 103.035 170.955 103.035 170.506C103.035 170.056 102.688 169.709 102.264 169.709C101.814 169.709 101.468 170.056 101.468 170.506C101.468 170.955 101.814 171.302 102.264 171.302ZM109.571 164.148H110.65C110.496 162.851 109.597 161.747 107.825 161.747C105.474 161.747 104.537 163.545 104.537 166.46C104.537 169.273 105.192 171.251 107.94 171.251C109.969 171.251 110.971 169.864 110.971 168.168C110.971 166.216 109.803 165.073 108.069 165.073C106.964 165.073 105.95 165.587 105.551 166.499C105.539 163.737 106.335 162.723 107.812 162.723C108.865 162.723 109.392 163.249 109.571 164.148ZM107.825 166.062C109.16 166.062 109.841 166.897 109.841 168.207C109.841 169.465 109.083 170.275 107.876 170.275C106.412 170.275 105.693 169.311 105.693 168.078C105.693 166.691 106.759 166.062 107.825 166.062ZM114.243 166.396C113.203 166.704 112.522 167.552 112.522 168.721C112.522 170.403 113.845 171.482 115.797 171.482C117.762 171.482 119.098 170.403 119.098 168.721C119.098 167.565 118.417 166.717 117.364 166.396C118.276 166.036 118.854 165.266 118.854 164.264C118.854 162.915 117.814 161.798 115.797 161.798C113.781 161.798 112.753 162.903 112.753 164.264C112.753 165.304 113.293 166.023 114.243 166.396ZM117.724 164.405C117.724 165.368 116.94 166.011 115.797 166.011C114.667 166.011 113.884 165.381 113.884 164.418C113.884 163.326 114.654 162.774 115.797 162.774C116.966 162.774 117.724 163.339 117.724 164.405ZM115.797 166.91C117.017 166.91 117.942 167.488 117.942 168.682C117.942 169.761 117.12 170.506 115.797 170.506C114.474 170.506 113.64 169.774 113.64 168.682C113.64 167.449 114.603 166.91 115.797 166.91ZM122.346 166.396C121.305 166.704 120.625 167.552 120.625 168.721C120.625 170.403 121.947 171.482 123.9 171.482C125.865 171.482 127.2 170.403 127.2 168.721C127.2 167.565 126.52 166.717 125.467 166.396C126.378 166.036 126.956 165.266 126.956 164.264C126.956 162.915 125.916 161.798 123.9 161.798C121.883 161.798 120.856 162.903 120.856 164.264C120.856 165.304 121.395 166.023 122.346 166.396ZM125.826 164.405C125.826 165.368 125.043 166.011 123.9 166.011C122.769 166.011 121.986 165.381 121.986 164.418C121.986 163.326 122.757 162.774 123.9 162.774C125.068 162.774 125.826 163.339 125.826 164.405ZM123.9 166.91C125.12 166.91 126.044 167.488 126.044 168.682C126.044 169.761 125.223 170.506 123.9 170.506C122.577 170.506 121.742 169.774 121.742 168.682C121.742 167.449 122.705 166.91 123.9 166.91ZM129.318 171.302C129.742 171.302 130.088 170.955 130.088 170.506C130.088 170.056 129.742 169.709 129.318 169.709C128.868 169.709 128.521 170.056 128.521 170.506C128.521 170.955 128.868 171.302 129.318 171.302ZM131.424 164.277H132.567C132.682 163.378 133.337 162.761 134.429 162.761C135.546 162.761 136.137 163.378 136.137 164.264C136.137 165.343 135.302 165.818 133.748 165.831H133.44V166.807H133.735C135.405 166.807 136.317 167.308 136.317 168.618C136.317 169.568 135.726 170.3 134.48 170.3C133.247 170.3 132.528 169.543 132.412 168.554H131.282C131.424 170.352 132.734 171.289 134.493 171.289C136.432 171.289 137.434 170.159 137.434 168.721C137.434 167.385 136.702 166.589 135.623 166.332V166.267C136.599 166.049 137.267 165.214 137.267 164.148C137.267 162.813 136.278 161.759 134.467 161.759C132.746 161.759 131.539 162.684 131.424 164.277ZM138.987 164.277H140.13C140.245 163.378 140.9 162.761 141.992 162.761C143.109 162.761 143.7 163.378 143.7 164.264C143.7 165.343 142.865 165.818 141.311 165.831H141.003V166.807H141.298C142.968 166.807 143.88 167.308 143.88 168.618C143.88 169.568 143.289 170.3 142.043 170.3C140.81 170.3 140.091 169.543 139.975 168.554H138.845C138.987 170.352 140.297 171.289 142.056 171.289C143.995 171.289 144.997 170.159 144.997 168.721C144.997 167.385 144.265 166.589 143.186 166.332V166.267C144.162 166.049 144.83 165.214 144.83 164.148C144.83 162.813 143.841 161.759 142.03 161.759C140.309 161.759 139.102 162.684 138.987 164.277ZM146.55 164.277H147.693C147.808 163.378 148.463 162.761 149.555 162.761C150.672 162.761 151.263 163.378 151.263 164.264C151.263 165.343 150.428 165.818 148.874 165.831H148.566V166.807H148.861C150.531 166.807 151.443 167.308 151.443 168.618C151.443 169.568 150.852 170.3 149.606 170.3C148.373 170.3 147.654 169.543 147.538 168.554H146.408C146.55 170.352 147.86 171.289 149.619 171.289C151.558 171.289 152.56 170.159 152.56 168.721C152.56 167.385 151.828 166.589 150.749 166.332V166.267C151.725 166.049 152.393 165.214 152.393 164.148C152.393 162.813 151.404 161.759 149.593 161.759C147.872 161.759 146.665 162.684 146.55 164.277Z" fill="#BA2D0B"/>
<path d="M183.002 44H332.992C339.073 44 344.002 48.9293 344.002 55.01V182.647C344.002 188.727 339.073 193.655 332.993 193.655H183.002V44Z" fill="white"/>
<path d="M191.828 62.6738H202.837V73.6824H191.828V62.6738Z" fill="#48A8F5"/>
<path d="M210.612 63.7264V64.6768H213.066V72.6782H214.234V64.6768H216.674V63.7264H210.612ZM221.183 72.7938C223.186 72.7938 224.792 71.381 224.792 69.1463C224.792 66.9244 223.238 65.5245 221.234 65.5245C219.243 65.5245 217.676 66.9244 217.676 69.1463C217.676 71.381 219.192 72.7938 221.183 72.7938ZM221.183 71.7663C219.963 71.7663 218.871 70.9315 218.871 69.1463C218.871 67.3739 219.988 66.5391 221.221 66.5391C222.428 66.5391 223.597 67.3739 223.597 69.1463C223.597 70.9315 222.403 71.7663 221.183 71.7663ZM226.585 63.8677V65.6401H225.673V66.6033H226.585V70.7517C226.585 72.1645 227.292 72.6782 228.537 72.6782H229.591V71.6893H228.73C228.011 71.6893 227.754 71.4453 227.754 70.7517V66.6033H229.591V65.6401H227.754V63.8677H226.585ZM230.57 69.1335C230.57 71.3168 232.021 72.7938 233.896 72.7938C235.194 72.7938 236.105 72.126 236.529 71.3682V72.6782H237.711V65.6401H236.529V66.9244C236.118 66.1924 235.219 65.5245 233.909 65.5245C232.021 65.5245 230.57 66.9373 230.57 69.1335ZM236.529 69.1463C236.529 70.8031 235.425 71.7663 234.14 71.7663C232.856 71.7663 231.764 70.7903 231.764 69.1335C231.764 67.4767 232.856 66.5391 234.14 66.5391C235.425 66.5391 236.529 67.5152 236.529 69.1463ZM239.686 63.1742V72.6782H240.855V63.1742H239.686ZM251.061 66.3593C251.061 67.3611 250.483 68.0803 249.16 68.0803H247.439V64.6897H249.16C250.496 64.6897 251.061 65.3447 251.061 66.3593ZM249.16 63.7264H246.271V72.6782H247.439V69.0179H248.852L250.984 72.6782H252.384L250.136 68.928C251.639 68.5941 252.268 67.5024 252.268 66.3593C252.268 64.8952 251.267 63.7264 249.16 63.7264ZM257.077 66.5134C258.284 66.5134 259.312 67.2712 259.299 68.6454H254.855C254.983 67.2712 255.934 66.5134 257.077 66.5134ZM260.365 70.5077H259.106C258.849 71.2655 258.181 71.8049 257.128 71.8049C255.934 71.8049 254.932 71.0214 254.842 69.5958H260.468C260.493 69.3518 260.506 69.1463 260.506 68.8894C260.506 66.963 259.17 65.5245 257.128 65.5245C255.073 65.5245 253.648 66.9244 253.648 69.1463C253.648 71.381 255.125 72.7938 257.128 72.7938C258.875 72.7938 260.005 71.792 260.365 70.5077ZM262.306 63.8677V65.6401H261.394V66.6033H262.306V70.7517C262.306 72.1645 263.012 72.6782 264.258 72.6782H265.311V71.6893H264.45C263.731 71.6893 263.474 71.4453 263.474 70.7517V66.6033H265.311V65.6401H263.474V63.8677H262.306ZM272.969 72.6782V65.6401H271.8V69.5059C271.8 71.0214 270.991 71.7663 269.784 71.7663C268.602 71.7663 267.819 71.0343 267.819 69.6087V65.6401H266.663V69.7628C266.663 71.7792 267.934 72.781 269.553 72.781C270.49 72.781 271.351 72.37 271.8 71.6379V72.6782H272.969ZM276.111 68.8509C276.111 67.2198 276.959 66.7189 278.076 66.7189H278.384V65.5117C277.267 65.5117 276.509 65.9997 276.111 66.7831V65.6401H274.942V72.6782H276.111V68.8509ZM284.884 68.6968V72.6782H286.039V68.5298C286.039 66.5134 284.794 65.5117 283.163 65.5117C282.212 65.5117 281.365 65.9098 280.902 66.6419V65.6401H279.733V72.6782H280.902V68.7867C280.902 67.2712 281.724 66.5263 282.919 66.5263C284.1 66.5263 284.884 67.2583 284.884 68.6968ZM294.378 75.0671H295.598V74.9515C293.813 73.1149 292.901 70.5848 292.901 67.9776C292.901 65.3575 293.813 62.6604 295.791 60.7982V60.6826H294.571C292.747 62.365 291.771 65.075 291.771 67.9776C291.771 70.8673 292.747 73.4617 294.378 75.0671ZM300.095 67.9776H298.374V64.6897H300.095C301.43 64.6897 301.995 65.3062 301.995 66.3465C301.995 67.3483 301.43 67.9776 300.095 67.9776ZM303.19 66.3465C303.19 64.8823 302.201 63.7264 300.095 63.7264H297.205V72.6782H298.374V68.9408H300.095C302.316 68.9408 303.19 67.7079 303.19 66.3465ZM305.811 68.8509C305.811 67.2198 306.659 66.7189 307.776 66.7189H308.084V65.5117C306.967 65.5117 306.209 65.9997 305.811 66.7831V65.6401H304.642V72.6782H305.811V68.8509ZM312.503 72.7938C314.507 72.7938 316.112 71.381 316.112 69.1463C316.112 66.9244 314.558 65.5245 312.554 65.5245C310.564 65.5245 308.997 66.9244 308.997 69.1463C308.997 71.381 310.512 72.7938 312.503 72.7938ZM312.503 71.7663C311.283 71.7663 310.191 70.9315 310.191 69.1463C310.191 67.3739 311.309 66.5391 312.542 66.5391C313.749 66.5391 314.918 67.3739 314.918 69.1463C314.918 70.9315 313.723 71.7663 312.503 71.7663ZM317.867 65.1392V65.6401H316.955V66.6033H317.867V72.6782H319.036V66.6033H320.513V65.6401H319.036V65.1392C319.036 64.2273 319.383 63.842 320.436 63.842V62.8659C318.638 62.8659 317.867 63.5723 317.867 65.1392ZM321.876 65.6401V72.6782H323.044V65.6401H321.876ZM322.479 64.497C322.903 64.497 323.25 64.1503 323.25 63.7008C323.25 63.2512 322.903 62.9045 322.479 62.9045C322.03 62.9045 321.683 63.2512 321.683 63.7008C321.683 64.1503 322.03 64.497 322.479 64.497ZM325.293 63.8677V65.6401H324.381V66.6033H325.293V70.7517C325.293 72.1645 325.999 72.6782 327.245 72.6782H328.298V71.6893H327.438C326.719 71.6893 326.462 71.4453 326.462 70.7517V66.6033H328.298V65.6401H326.462V63.8677H325.293ZM330.562 75.0671H329.342V74.9515C331.127 73.1149 332.039 70.5848 332.039 67.9776C332.039 65.3575 331.127 62.6604 329.149 60.7982V60.6826H330.369C332.193 62.365 333.169 65.075 333.169 67.9776C333.169 70.8673 332.193 73.4617 330.562 75.0671Z" fill="#90A2B2"/>
<rect x="183.002" y="92.356" width="161" height="0.917379" fill="#F0F3F5"/>
<path d="M218.319 122.952H215.869C212.833 122.952 211.585 120.797 213.108 118.164L214.337 116.045L215.567 113.925C217.089 111.293 219.575 111.293 221.098 113.925L222.328 116.045L223.557 118.164C225.08 120.797 223.832 122.952 220.796 122.952H218.319Z" fill="#007F5F"/>
<path d="M233.267 113.732V121.952H234.448V112.666H232.034V113.732H233.267ZM237.021 122.029C237.445 122.029 237.792 121.682 237.792 121.232C237.792 120.783 237.445 120.436 237.021 120.436C236.572 120.436 236.225 120.783 236.225 121.232C236.225 121.682 236.572 122.029 237.021 122.029ZM240.655 119.46H239.576C239.705 120.821 240.604 121.965 242.453 121.965C244.893 121.965 245.6 120.231 245.6 117.135C245.6 114.259 244.868 112.486 242.351 112.486C240.347 112.486 239.294 113.77 239.294 115.543C239.294 117.508 240.565 118.574 242.273 118.574C243.275 118.574 244.2 118.124 244.572 117.341C244.611 120.064 243.879 120.988 242.517 120.988C241.439 120.988 240.822 120.423 240.655 119.46ZM242.466 117.585C241.079 117.585 240.411 116.712 240.411 115.517C240.411 114.284 241.169 113.462 242.376 113.462C243.712 113.462 244.431 114.348 244.431 115.607C244.431 116.853 243.583 117.585 242.466 117.585ZM247.101 121.014V121.849H253.279V120.873H248.861C250.517 119.524 253.009 117.559 253.009 115.247C253.009 113.526 251.879 112.499 250.132 112.499C248.462 112.499 247.217 113.526 247.14 115.504H248.27C248.321 114.336 248.938 113.501 250.145 113.501C251.404 113.501 251.853 114.271 251.853 115.299C251.853 117.2 249.541 119.049 247.101 121.014ZM259.099 119.884V121.952H260.255V119.884H261.539V118.869H260.255V112.756H258.855L254.347 118.998V119.884H259.099ZM259.151 118.869H255.696L259.151 113.976V118.869ZM263.272 122.029C263.696 122.029 264.043 121.682 264.043 121.232C264.043 120.783 263.696 120.436 263.272 120.436C262.823 120.436 262.476 120.783 262.476 121.232C262.476 121.682 262.823 122.029 263.272 122.029ZM270.579 114.875H271.658C271.504 113.578 270.605 112.473 268.833 112.473C266.482 112.473 265.545 114.271 265.545 117.187C265.545 119.999 266.2 121.977 268.948 121.977C270.978 121.977 271.979 120.59 271.979 118.895C271.979 116.943 270.811 115.8 269.077 115.8C267.972 115.8 266.958 116.313 266.559 117.225C266.547 114.464 267.343 113.449 268.82 113.449C269.873 113.449 270.4 113.976 270.579 114.875ZM268.833 116.789C270.168 116.789 270.849 117.623 270.849 118.933C270.849 120.192 270.091 121.001 268.884 121.001C267.42 121.001 266.701 120.038 266.701 118.805C266.701 117.418 267.767 116.789 268.833 116.789ZM275.251 117.123C274.211 117.431 273.53 118.278 273.53 119.447C273.53 121.13 274.853 122.209 276.805 122.209C278.77 122.209 280.106 121.13 280.106 119.447C280.106 118.291 279.425 117.444 278.372 117.123C279.284 116.763 279.862 115.992 279.862 114.991C279.862 113.642 278.822 112.525 276.805 112.525C274.789 112.525 273.762 113.629 273.762 114.991C273.762 116.031 274.301 116.75 275.251 117.123ZM278.732 115.132C278.732 116.095 277.948 116.737 276.805 116.737C275.675 116.737 274.892 116.108 274.892 115.145C274.892 114.053 275.662 113.501 276.805 113.501C277.974 113.501 278.732 114.066 278.732 115.132ZM276.805 117.636C278.025 117.636 278.95 118.214 278.95 119.409C278.95 120.488 278.128 121.232 276.805 121.232C275.483 121.232 274.648 120.5 274.648 119.409C274.648 118.176 275.611 117.636 276.805 117.636ZM283.354 117.123C282.313 117.431 281.633 118.278 281.633 119.447C281.633 121.13 282.956 122.209 284.908 122.209C286.873 122.209 288.208 121.13 288.208 119.447C288.208 118.291 287.528 117.444 286.475 117.123C287.386 116.763 287.964 115.992 287.964 114.991C287.964 113.642 286.924 112.525 284.908 112.525C282.891 112.525 281.864 113.629 281.864 114.991C281.864 116.031 282.403 116.75 283.354 117.123ZM286.834 115.132C286.834 116.095 286.051 116.737 284.908 116.737C283.777 116.737 282.994 116.108 282.994 115.145C282.994 114.053 283.765 113.501 284.908 113.501C286.076 113.501 286.834 114.066 286.834 115.132ZM284.908 117.636C286.128 117.636 287.053 118.214 287.053 119.409C287.053 120.488 286.231 121.232 284.908 121.232C283.585 121.232 282.75 120.5 282.75 119.409C282.75 118.176 283.713 117.636 284.908 117.636ZM290.326 122.029C290.75 122.029 291.096 121.682 291.096 121.232C291.096 120.783 290.75 120.436 290.326 120.436C289.876 120.436 289.529 120.783 289.529 121.232C289.529 121.682 289.876 122.029 290.326 122.029ZM292.432 115.003H293.575C293.69 114.104 294.345 113.488 295.437 113.488C296.554 113.488 297.145 114.104 297.145 114.991C297.145 116.069 296.31 116.545 294.756 116.557H294.448V117.534H294.743C296.413 117.534 297.325 118.034 297.325 119.344C297.325 120.295 296.734 121.027 295.488 121.027C294.255 121.027 293.536 120.269 293.421 119.28H292.29C292.432 121.078 293.742 122.016 295.501 122.016C297.44 122.016 298.442 120.886 298.442 119.447C298.442 118.112 297.71 117.315 296.631 117.058V116.994C297.607 116.776 298.275 115.941 298.275 114.875C298.275 113.539 297.286 112.486 295.475 112.486C293.754 112.486 292.547 113.411 292.432 115.003ZM299.995 115.003H301.138C301.253 114.104 301.908 113.488 303 113.488C304.117 113.488 304.708 114.104 304.708 114.991C304.708 116.069 303.873 116.545 302.319 116.557H302.011V117.534H302.306C303.976 117.534 304.888 118.034 304.888 119.344C304.888 120.295 304.297 121.027 303.051 121.027C301.818 121.027 301.099 120.269 300.984 119.28H299.853C299.995 121.078 301.305 122.016 303.064 122.016C305.003 122.016 306.005 120.886 306.005 119.447C306.005 118.112 305.273 117.315 304.194 117.058V116.994C305.17 116.776 305.838 115.941 305.838 114.875C305.838 113.539 304.849 112.486 303.038 112.486C301.317 112.486 300.11 113.411 299.995 115.003ZM307.558 115.003H308.701C308.816 114.104 309.471 113.488 310.563 113.488C311.68 113.488 312.271 114.104 312.271 114.991C312.271 116.069 311.436 116.545 309.882 116.557H309.574V117.534H309.869C311.539 117.534 312.451 118.034 312.451 119.344C312.451 120.295 311.86 121.027 310.614 121.027C309.381 121.027 308.662 120.269 308.547 119.28H307.416C307.558 121.078 308.868 122.016 310.627 122.016C312.566 122.016 313.568 120.886 313.568 119.447C313.568 118.112 312.836 117.315 311.757 117.058V116.994C312.733 116.776 313.401 115.941 313.401 114.875C313.401 113.539 312.412 112.486 310.601 112.486C308.88 112.486 307.673 113.411 307.558 115.003Z" fill="#007F5F"/>
<rect x="183.002" y="141.63" width="161" height="0.917379" fill="#F0F3F5"/>
<path d="M218.338 161.224H220.788C223.824 161.224 225.072 163.38 223.549 166.013L222.32 168.132L221.09 170.251C219.568 172.884 217.081 172.884 215.559 170.251L214.329 168.132L213.1 166.013C211.605 163.38 212.843 161.224 215.889 161.224H218.338Z" fill="#BA2D0B"/>
<path d="M233.259 163.005V171.225H234.44V161.939H232.026V163.005H233.259ZM237.013 171.302C237.437 171.302 237.784 170.955 237.784 170.506C237.784 170.056 237.437 169.709 237.013 169.709C236.563 169.709 236.217 170.056 236.217 170.506C236.217 170.955 236.563 171.302 237.013 171.302ZM240.647 168.733H239.568C239.697 170.095 240.596 171.238 242.445 171.238C244.885 171.238 245.592 169.504 245.592 166.409C245.592 163.532 244.86 161.759 242.342 161.759C240.339 161.759 239.286 163.044 239.286 164.816C239.286 166.781 240.557 167.847 242.265 167.847C243.267 167.847 244.192 167.398 244.564 166.614C244.603 169.337 243.871 170.262 242.509 170.262C241.431 170.262 240.814 169.697 240.647 168.733ZM242.458 166.858C241.071 166.858 240.403 165.985 240.403 164.79C240.403 163.558 241.161 162.736 242.368 162.736C243.704 162.736 244.423 163.622 244.423 164.88C244.423 166.126 243.575 166.858 242.458 166.858ZM247.093 170.287V171.122H253.271V170.146H248.853C250.509 168.798 253.001 166.833 253.001 164.521C253.001 162.8 251.871 161.772 250.124 161.772C248.454 161.772 247.209 162.8 247.131 164.778H248.262C248.313 163.609 248.93 162.774 250.137 162.774C251.395 162.774 251.845 163.545 251.845 164.572C251.845 166.473 249.533 168.322 247.093 170.287ZM259.091 169.157V171.225H260.247V169.157H261.531V168.143H260.247V162.029H258.847L254.339 168.271V169.157H259.091ZM259.142 168.143H255.688L259.142 163.249V168.143ZM263.264 171.302C263.688 171.302 264.035 170.955 264.035 170.506C264.035 170.056 263.688 169.709 263.264 169.709C262.814 169.709 262.468 170.056 262.468 170.506C262.468 170.955 262.814 171.302 263.264 171.302ZM270.571 164.148H271.65C271.496 162.851 270.597 161.747 268.825 161.747C266.474 161.747 265.537 163.545 265.537 166.46C265.537 169.273 266.192 171.251 268.94 171.251C270.969 171.251 271.971 169.864 271.971 168.168C271.971 166.216 270.803 165.073 269.069 165.073C267.964 165.073 266.95 165.587 266.551 166.499C266.539 163.737 267.335 162.723 268.812 162.723C269.865 162.723 270.392 163.249 270.571 164.148ZM268.825 166.062C270.16 166.062 270.841 166.897 270.841 168.207C270.841 169.465 270.083 170.275 268.876 170.275C267.412 170.275 266.693 169.311 266.693 168.078C266.693 166.691 267.759 166.062 268.825 166.062ZM275.243 166.396C274.203 166.704 273.522 167.552 273.522 168.721C273.522 170.403 274.845 171.482 276.797 171.482C278.762 171.482 280.098 170.403 280.098 168.721C280.098 167.565 279.417 166.717 278.364 166.396C279.276 166.036 279.854 165.266 279.854 164.264C279.854 162.915 278.814 161.798 276.797 161.798C274.781 161.798 273.753 162.903 273.753 164.264C273.753 165.304 274.293 166.023 275.243 166.396ZM278.724 164.405C278.724 165.368 277.94 166.011 276.797 166.011C275.667 166.011 274.884 165.381 274.884 164.418C274.884 163.326 275.654 162.774 276.797 162.774C277.966 162.774 278.724 163.339 278.724 164.405ZM276.797 166.91C278.017 166.91 278.942 167.488 278.942 168.682C278.942 169.761 278.12 170.506 276.797 170.506C275.474 170.506 274.64 169.774 274.64 168.682C274.64 167.449 275.603 166.91 276.797 166.91ZM283.346 166.396C282.305 166.704 281.625 167.552 281.625 168.721C281.625 170.403 282.947 171.482 284.9 171.482C286.865 171.482 288.2 170.403 288.2 168.721C288.2 167.565 287.52 166.717 286.467 166.396C287.378 166.036 287.956 165.266 287.956 164.264C287.956 162.915 286.916 161.798 284.9 161.798C282.883 161.798 281.856 162.903 281.856 164.264C281.856 165.304 282.395 166.023 283.346 166.396ZM286.826 164.405C286.826 165.368 286.043 166.011 284.9 166.011C283.769 166.011 282.986 165.381 282.986 164.418C282.986 163.326 283.757 162.774 284.9 162.774C286.068 162.774 286.826 163.339 286.826 164.405ZM284.9 166.91C286.12 166.91 287.044 167.488 287.044 168.682C287.044 169.761 286.223 170.506 284.9 170.506C283.577 170.506 282.742 169.774 282.742 168.682C282.742 167.449 283.705 166.91 284.9 166.91ZM290.318 171.302C290.742 171.302 291.088 170.955 291.088 170.506C291.088 170.056 290.742 169.709 290.318 169.709C289.868 169.709 289.521 170.056 289.521 170.506C289.521 170.955 289.868 171.302 290.318 171.302ZM292.424 164.277H293.567C293.682 163.378 294.337 162.761 295.429 162.761C296.546 162.761 297.137 163.378 297.137 164.264C297.137 165.343 296.302 165.818 294.748 165.831H294.44V166.807H294.735C296.405 166.807 297.317 167.308 297.317 168.618C297.317 169.568 296.726 170.3 295.48 170.3C294.247 170.3 293.528 169.543 293.412 168.554H292.282C292.424 170.352 293.734 171.289 295.493 171.289C297.432 171.289 298.434 170.159 298.434 168.721C298.434 167.385 297.702 166.589 296.623 166.332V166.267C297.599 166.049 298.267 165.214 298.267 164.148C298.267 162.813 297.278 161.759 295.467 161.759C293.746 161.759 292.539 162.684 292.424 164.277ZM299.987 164.277H301.13C301.245 163.378 301.9 162.761 302.992 162.761C304.109 162.761 304.7 163.378 304.7 164.264C304.7 165.343 303.865 165.818 302.311 165.831H302.003V166.807H302.298C303.968 166.807 304.88 167.308 304.88 168.618C304.88 169.568 304.289 170.3 303.043 170.3C301.81 170.3 301.091 169.543 300.975 168.554H299.845C299.987 170.352 301.297 171.289 303.056 171.289C304.995 171.289 305.997 170.159 305.997 168.721C305.997 167.385 305.265 166.589 304.186 166.332V166.267C305.162 166.049 305.83 165.214 305.83 164.148C305.83 162.813 304.841 161.759 303.03 161.759C301.309 161.759 300.102 162.684 299.987 164.277ZM307.55 164.277H308.693C308.808 163.378 309.463 162.761 310.555 162.761C311.672 162.761 312.263 163.378 312.263 164.264C312.263 165.343 311.428 165.818 309.874 165.831H309.566V166.807H309.861C311.531 166.807 312.443 167.308 312.443 168.618C312.443 169.568 311.852 170.3 310.606 170.3C309.373 170.3 308.654 169.543 308.538 168.554H307.408C307.55 170.352 308.86 171.289 310.619 171.289C312.558 171.289 313.56 170.159 313.56 168.721C313.56 167.385 312.828 166.589 311.749 166.332V166.267C312.725 166.049 313.393 165.214 313.393 164.148C313.393 162.813 312.404 161.759 310.593 161.759C308.872 161.759 307.665 162.684 307.55 164.277Z" fill="#BA2D0B"/>
</svg>
