<svg width="1257.000000" height="33.000000" viewBox="0 0 1257 33" fill="none" xmlns="http://www.w3.org/2000/svg" xmlns:xlink="http://www.w3.org/1999/xlink">
	<desc>
			Created with Pixso.
	</desc>
	<defs/>
	<path id="Vector" d="M18.27 26.74L18.27 21.18L12.21 21.18C10.57 21.18 9.04 22.05 8.2 23.46L6.23 26.74L18.27 26.74Z" fill="#90A2B2" fill-opacity="1.000000" fill-rule="nonzero"/>
	<path id="Vector" d="M-1 5.38L-1 10.94L14.94 10.94L18.27 5.38L-1 5.38Z" fill="#90A2B2" fill-opacity="1.000000" fill-rule="nonzero"/>
	<path id="Vector" d="M6.63 14.07L-0.99 26.74L5.5 26.74L14.61 11.59L11.02 11.59C9.22 11.59 7.55 12.53 6.63 14.07Z" fill="#90A2B2" fill-opacity="1.000000" fill-rule="nonzero"/>
	<path id="Vector" d="M32.07 21.41C28.81 21.41 26.41 19.04 26.41 15.85C26.41 12.7 28.83 10.3 32.09 10.3C35.35 10.3 37.77 12.73 37.77 15.85C37.77 19.01 35.34 21.41 32.07 21.41ZM32.09 19.46C34.15 19.46 35.63 17.94 35.63 15.85C35.63 13.8 34.15 12.24 32.09 12.24C30.01 12.24 28.53 13.8 28.53 15.85C28.53 17.94 30.01 19.46 32.09 19.46ZM39.95 24.73L39.95 13.16L41.92 13.16L41.92 14.19L42.03 14.19C42.24 13.85 42.98 12.96 44.46 12.96C46.72 12.96 48.28 14.65 48.28 17.15C48.28 19.66 46.74 21.41 44.52 21.41C43.09 21.41 42.32 20.61 42.06 20.17L41.95 20.17L41.95 24.73L39.95 24.73ZM44.08 19.6C45.37 19.6 46.25 18.61 46.25 17.19C46.25 15.72 45.37 14.77 44.06 14.77C42.74 14.77 41.91 15.82 41.91 17.19C41.91 18.68 42.83 19.6 44.08 19.6ZM54 21.41C51.62 21.41 49.92 19.63 49.92 17.23C49.92 14.69 51.63 12.96 54 12.96C56.6 12.96 58.02 14.88 58.02 17.14L58.02 17.77L51.86 17.77C51.92 18.99 52.77 19.82 54.06 19.82C55.05 19.82 55.8 19.36 56.08 18.7L57.94 18.7C57.54 20.34 56.09 21.41 54 21.41ZM51.89 16.36L56.11 16.36C56.02 15.27 55.17 14.55 54 14.55C52.88 14.55 52.02 15.35 51.89 16.36ZM60.17 21.21L60.17 13.16L62.08 13.16L62.08 14.14L62.19 14.14C62.51 13.54 63.31 12.96 64.47 12.96C66.28 12.96 67.39 14.23 67.39 15.95L67.39 21.21L65.39 21.21L65.39 16.47C65.39 15.49 64.76 14.83 63.83 14.83C62.86 14.83 62.17 15.59 62.17 16.6L62.17 21.21L60.17 21.21ZM69.37 21.21L69.37 19.39L74.98 12.37L74.98 12.26L69.57 12.26L69.57 10.5L77.53 10.5L77.53 12.3L71.93 19.33L71.93 19.45L77.56 19.45L77.56 21.21L69.37 21.21ZM82.98 21.41C80.59 21.41 78.9 19.63 78.9 17.23C78.9 14.69 80.61 12.96 82.98 12.96C85.58 12.96 86.99 14.88 86.99 17.14L86.99 17.77L80.84 17.77C80.9 18.99 81.75 19.82 83.04 19.82C84.02 19.82 84.78 19.36 85.06 18.7L86.92 18.7C86.52 20.34 85.07 21.41 82.98 21.41ZM80.87 16.36L85.09 16.36C84.99 15.27 84.15 14.55 82.98 14.55C81.85 14.55 80.99 15.35 80.87 16.36ZM89.15 24.73L89.15 13.16L91.12 13.16L91.12 14.19L91.23 14.19C91.44 13.85 92.18 12.96 93.66 12.96C95.92 12.96 97.47 14.65 97.47 17.15C97.47 19.66 95.93 21.41 93.72 21.41C92.29 21.41 91.52 20.61 91.26 20.17L91.15 20.17L91.15 24.73L89.15 24.73ZM93.27 19.6C94.57 19.6 95.44 18.61 95.44 17.19C95.44 15.72 94.57 14.77 93.26 14.77C91.93 14.77 91.1 15.82 91.1 17.19C91.1 18.68 92.03 19.6 93.27 19.6ZM99.63 24.73L99.63 13.16L101.6 13.16L101.6 14.19L101.71 14.19C101.92 13.85 102.66 12.96 104.14 12.96C106.4 12.96 107.95 14.65 107.95 17.15C107.95 19.66 106.42 21.41 104.2 21.41C102.77 21.41 102 20.61 101.74 20.17L101.63 20.17L101.63 24.73L99.63 24.73ZM103.75 19.6C105.05 19.6 105.92 18.61 105.92 17.19C105.92 15.72 105.05 14.77 103.74 14.77C102.41 14.77 101.58 15.82 101.58 17.19C101.58 18.68 102.51 19.6 103.75 19.6ZM113.68 21.41C111.29 21.41 109.6 19.63 109.6 17.23C109.6 14.69 111.31 12.96 113.68 12.96C116.28 12.96 117.69 14.88 117.69 17.14L117.69 17.77L111.54 17.77C111.6 18.99 112.45 19.82 113.74 19.82C114.72 19.82 115.48 19.36 115.76 18.7L117.62 18.7C117.22 20.34 115.77 21.41 113.68 21.41ZM111.57 16.36L115.79 16.36C115.69 15.27 114.85 14.55 113.68 14.55C112.55 14.55 111.69 15.35 111.57 16.36ZM121.82 21.21C120.4 21.21 119.6 20.37 119.6 18.94L119.6 9.73L121.6 9.73L121.6 18.76C121.6 19.22 121.83 19.46 122.25 19.46L122.57 19.46L122.57 21.21L121.82 21.21ZM125.5 12.09C124.77 12.09 124.26 11.65 124.26 10.93C124.26 10.24 124.77 9.78 125.5 9.78C126.22 9.78 126.73 10.24 126.73 10.93C126.73 11.65 126.22 12.09 125.5 12.09ZM124.5 21.21L124.5 13.16L126.5 13.16L126.5 21.21L124.5 21.21ZM128.93 21.21L128.93 13.16L130.84 13.16L130.84 14.14L130.94 14.14C131.27 13.54 132.07 12.96 133.22 12.96C135.04 12.96 136.14 14.23 136.14 15.95L136.14 21.21L134.14 21.21L134.14 16.47C134.14 15.49 133.51 14.83 132.59 14.83C131.62 14.83 130.93 15.59 130.93 16.6L130.93 21.21L128.93 21.21Z" fill="#90A2B2" fill-opacity="1.000000" fill-rule="nonzero"/>
	<path id="Vector" d="M244.91 18.75L253.97 18.75L249.18 11.04L240.38 24.98L236.38 24.98L247.08 8.24C247.54 7.56 248.32 7.15 249.18 7.15C250.01 7.15 250.79 7.54 251.24 8.21L261.98 24.98L257.97 24.98L256.08 21.86L246.91 21.86L244.91 18.75ZM286.49 21.86L286.49 7.32L283.09 7.32L283.09 23.29C283.09 23.72 283.26 24.15 283.58 24.47C283.91 24.8 284.34 24.98 284.82 24.98L300.31 24.98L302.31 21.86L286.49 21.86ZM230.29 19.26C233.59 19.26 236.27 16.59 236.27 13.29C236.27 10 233.59 7.32 230.29 7.32L215.43 7.32L215.43 24.98L218.83 24.98L218.83 10.43L230.07 10.43C231.65 10.43 232.91 11.72 232.91 13.29C232.91 14.87 231.65 16.16 230.07 16.16L220.49 16.14L230.63 24.98L235.56 24.98L228.74 19.26L230.29 19.26ZM194.53 24.98C189.66 24.98 185.7 21.03 185.7 16.16C185.7 11.28 189.66 7.32 194.53 7.32L204.8 7.32C209.67 7.32 213.63 11.28 213.63 16.16C213.63 21.03 209.67 24.98 204.8 24.98L194.53 24.98ZM204.57 21.86C207.73 21.86 210.28 19.31 210.28 16.16C210.28 13 207.73 10.43 204.57 10.43L194.76 10.43C191.6 10.43 189.04 13 189.04 16.16C189.04 19.31 191.6 21.86 194.76 21.86L204.57 21.86ZM269.07 24.98C264.19 24.98 260.23 21.03 260.23 16.16C260.23 11.28 264.19 7.32 269.07 7.32L281.26 7.32L279.27 10.43L269.29 10.43C266.13 10.43 263.57 13 263.57 16.16C263.57 19.31 266.13 21.86 269.29 21.86L281.54 21.86L279.54 24.98L269.07 24.98ZM310.6 21.86C307.99 21.86 305.78 20.12 305.1 17.71L319.62 17.71L321.62 14.59L305.1 14.59C305.78 12.2 307.99 10.43 310.6 10.43L320.57 10.43L322.58 7.32L310.38 7.32C305.5 7.32 301.54 11.28 301.54 16.16C301.54 21.03 305.5 24.98 310.38 24.98L320.85 24.98L322.85 21.86L310.6 21.86Z" fill="#90A2B2" fill-opacity="1.000000" fill-rule="nonzero"/>
	<path id="Vector" d="M508.38 11.75C509.46 12.62 508.32 13.99 507.37 13.3C506.2 12.56 503.54 12.21 503.21 13.85C502.78 16.45 509.66 14.96 509.55 19.17C509.44 23.18 503.62 23.28 501.44 21.48C500.92 21.05 500.93 20.35 501.22 19.93C501.63 19.51 502.09 19.37 502.62 19.82C503.92 20.7 507.26 21.37 507.49 19.12C507.29 16.78 500.71 18.19 501.2 13.69C501.56 10.63 506.2 10.07 508.38 11.75ZM498 12.37L498 18.09C498 24.01 488.47 24.01 488.47 18.09L488.47 12.37C488.47 10.94 490.54 10.88 490.54 12.37L490.54 18.09C490.54 21.21 495.93 21.4 495.93 18.09L495.93 12.37C495.93 10.96 498 10.85 498 12.37ZM432.7 10.93C435.46 11.07 438.36 12.98 438.36 16.73C438.36 20.48 435.46 22.42 432.7 22.42C429.77 22.55 426.73 20.61 426.73 16.73C426.73 12.84 429.77 10.93 432.7 10.93ZM446.63 11.32C450.65 11.32 451.47 16.7 448.12 18.04L450.22 20.61C451.04 21.82 449.4 22.99 448.45 21.79L446.06 18.38L443.58 18.38L443.58 21.24C443.58 22.61 441.48 22.66 441.48 21.27L441.48 12.29C441.48 11.73 441.9 11.32 442.42 11.32L446.63 11.32ZM413.86 11.18C414.32 11.18 414.59 11.45 414.86 11.75L418.33 16.45L421.94 11.57C422.46 10.93 423.74 11.18 423.74 12.27L423.74 21.18C423.74 21.87 423.3 22.27 422.8 22.27C422.23 22.27 421.78 21.87 421.78 21.18L421.78 15.32L419.16 18.64C418.59 19.34 417.88 19.34 417.35 18.64L415 15.32L415 21.18C415 21.87 414.43 22.27 413.86 22.27C413.35 22.27 412.91 21.87 412.91 21.18L412.91 12.27C412.91 11.45 413.61 11.18 413.86 11.18ZM458.1 11.18C460.15 11.18 462.01 12.56 462.01 15.2C462.01 17.7 460.15 19.09 458.1 19.09L455.46 19.09L455.46 21.18C455.46 21.87 455.01 22.27 454.44 22.27C453.92 22.27 453.37 21.87 453.37 21.18L453.37 12.27C453.37 11.75 453.78 11.18 454.44 11.18L458.1 11.18ZM473.2 11.32C473.76 11.32 474.18 11.73 474.18 12.3L474.18 21.29C474.18 21.84 473.76 22.27 473.2 22.27C472.63 22.27 472.13 21.84 472.13 21.29L472.13 17.82L466.97 17.82L466.97 21.29C466.97 21.84 466.56 22.27 466.01 22.27C465.3 22.27 464.88 21.84 464.88 21.29L464.88 12.3C464.88 11.73 465.3 11.32 466.01 11.32C466.56 11.32 466.97 11.73 466.97 12.3L466.97 15.75L472.13 15.75L472.13 12.3C472.13 11.73 472.63 11.32 473.2 11.32ZM484.21 11.32C485.67 11.32 485.64 13.38 484.21 13.38L479.66 13.38L479.66 15.75L483.64 15.75C485.05 15.75 485.05 17.82 483.64 17.82L479.66 17.82L479.66 20.19L484.48 20.19C485.92 20.19 486.03 22.27 484.48 22.27L478.53 22.27C477.98 22.27 477.55 21.84 477.55 21.29L477.55 12.3C477.55 11.73 477.98 11.32 478.53 11.32L484.21 11.32ZM432.52 12.98C430.75 12.98 428.82 14.23 428.82 16.73C428.82 19.21 430.75 20.48 432.52 20.48C434.34 20.48 436.29 19.21 436.29 16.73C436.29 14.23 434.34 12.98 432.52 12.98ZM458.1 13.17L455.46 13.17L455.46 17.11L458.1 17.11C459.16 17.11 460 16.18 460 15.2C460 14.09 459.16 13.17 458.1 13.17ZM446.63 13.24L443.58 13.24L443.58 16.56L446.63 16.56C448.69 16.56 448.81 13.24 446.63 13.24Z" fill="#90A2B2" fill-opacity="1.000000" fill-rule="nonzero"/>
	<path id="Vector" d="M400.36 19.62C398.82 25.82 393.18 30.23 386.54 30.23C379.86 30.23 374.27 25.56 372.79 19.34C374.57 19.34 376.23 19.35 377 19.35C377.37 19.35 377.44 19.35 377.46 19.35C378.04 19.32 378.77 19.13 379.25 17.95L381.1 13.12L385.2 22.99C385.56 23.78 386.18 23.73 386.55 23.73L386.58 23.73C387.3 23.73 387.61 23.48 387.88 22.96L392.51 13.2L394.09 17.6L394.19 17.81C394.52 18.54 394.76 19.27 395.59 19.36C395.76 19.38 397.74 19.34 400.4 19.34C400.4 19.34 400.4 19.36 400.36 19.62Z" fill="#90A2B2" fill-opacity="1.000000" fill-rule="nonzero"/>
	<path id="Vector" d="M400.82 15.98C400.82 16.05 400.82 16.24 400.82 16.24L400.81 16.24L396.56 16.24L394.07 9.3C393.85 8.78 393.52 8.01 392.55 8.01C391.96 8.01 391.42 8.5 391.12 9.3L386.61 19.73L382.28 9.37C381.86 8.45 381.56 8.01 380.71 8.01C380.14 8.01 379.72 8.23 379.26 9.32L376.68 16.34L372.41 16.33C372.41 16.23 372.4 16.12 372.4 16.01C372.4 8.21 378.73 1.9 386.54 1.9C394.34 1.9 400.82 8.17 400.82 15.98Z" fill="#90A2B2" fill-opacity="1.000000" fill-rule="nonzero"/>
	<path id="Vector" d="M689.32 14.79L689.32 17.65L691.33 17.65L691.33 20.48C691.34 20.7 691.33 20.93 691.3 21.13L691.28 21.23C691.28 21.25 691.27 21.27 691.27 21.3L691.25 21.37C691.25 21.38 691.24 21.39 691.24 21.4L691.22 21.48C691.04 22 690.49 22.66 689.27 22.66C687.97 22.66 687.44 21.9 687.3 21.37L687.29 21.3L687.27 21.23C687.24 21.01 687.22 20.74 687.22 20.48L687.22 11.52C687.22 11.24 687.24 10.94 687.29 10.69L687.32 10.54C687.33 10.53 687.33 10.51 687.33 10.5L687.35 10.44C687.35 10.43 687.36 10.41 687.36 10.4L687.39 10.33C687.57 9.84 688.06 9.18 689.26 9.18C690.18 9.18 690.68 9.55 690.94 9.94L690.99 10.01C691.01 10.04 691.02 10.06 691.03 10.09L691.07 10.16L691.1 10.23L691.13 10.3L691.16 10.37L691.18 10.43L691.19 10.49L691.21 10.54L691.22 10.6C691.22 10.62 691.23 10.65 691.23 10.68L691.24 10.77C691.25 10.78 691.25 10.8 691.25 10.81L691.26 10.95L691.27 11.08L691.28 11.26L691.28 11.35L691.28 12.44L696.22 12.44L696.22 11.76L696.22 11.52L696.22 11.33L696.22 11.11L696.21 11L696.2 10.81L696.19 10.63L696.18 10.5C695.85 7.19 693.36 5.92 690.33 5.69L690.13 5.68L689.92 5.67C689.82 5.67 689.72 5.66 689.61 5.66L689.41 5.66C689.37 5.66 689.34 5.66 689.3 5.66L689.09 5.66C689.06 5.66 689.03 5.66 688.99 5.66L688.78 5.67L688.58 5.68L688.38 5.69L688.18 5.7C688.11 5.71 688.04 5.71 687.98 5.72L687.78 5.74C687.74 5.75 687.71 5.75 687.68 5.75L687.48 5.78C687.03 5.85 686.6 5.94 686.18 6.06L686.01 6.12C684.1 6.75 682.71 8.08 682.42 10.5L682.39 10.77L682.37 10.98L682.35 11.19L682.34 11.41C682.33 11.55 682.32 11.69 682.32 11.8L682.32 20.15L682.32 20.25L682.33 20.41L682.33 20.52L682.34 20.64L682.35 20.76L682.36 20.91L682.38 21.15L682.4 21.33C682.68 24.41 685.01 25.78 687.86 26.1L688.06 26.12C688.4 26.15 688.74 26.17 689.08 26.18L689.29 26.18L689.5 26.18C689.84 26.17 690.19 26.15 690.52 26.12L690.72 26.1C693.59 25.78 695.9 24.41 696.18 21.33L696.21 21.06L696.22 20.83L696.24 20.58L696.25 20.35L696.26 20.04L696.26 14.79L689.32 14.79ZM655.27 6.19L650.32 6.19L650.32 20.69C650.32 20.94 650.32 21.23 650.27 21.44L650.26 21.5L650.24 21.57C650.23 21.59 650.22 21.61 650.22 21.64L650.19 21.71C650 22.21 649.53 22.86 648.39 22.86C647.32 22.86 646.83 22.27 646.63 21.79L646.59 21.71C646.59 21.7 646.59 21.69 646.58 21.67L646.56 21.6L646.54 21.53C646.54 21.52 646.53 21.51 646.53 21.5L646.52 21.44C646.47 21.23 646.46 20.94 646.47 20.69L646.47 6.19L641.51 6.19L641.51 20.24L641.51 20.35L641.51 20.55L641.52 20.84L641.53 21.2L641.54 21.37L641.55 21.47L641.55 21.54C641.8 24.14 643.32 25.49 645.48 26.06L645.66 26.1C646.06 26.2 646.48 26.27 646.92 26.31L647.12 26.33L647.33 26.35L647.54 26.36C647.64 26.37 647.75 26.38 647.85 26.38L648.07 26.38L648.28 26.39C648.32 26.39 648.35 26.39 648.39 26.39L648.6 26.39C648.64 26.39 648.67 26.39 648.71 26.38L648.92 26.38C649.03 26.38 649.13 26.37 649.24 26.36L649.45 26.35L649.65 26.33L649.86 26.31C652.76 26.01 654.93 24.69 655.23 21.54L655.24 21.51L655.24 21.42L655.26 21.26L655.27 21.06L655.27 20.92L655.28 20.69L655.28 20.55L655.28 20.42L655.28 20.29C655.28 20.28 655.27 20.26 655.27 20.24L655.27 6.19ZM609.71 6.19L607.24 21.51L604.77 6.19L596.77 6.19L596.34 25.79L601.24 25.79L601.38 7.64L604.75 25.79L609.72 25.79L613.09 7.64L613.23 25.79L618.14 25.79L617.7 6.19L609.71 6.19ZM580.1 6.19L576.47 25.79L581.76 25.79L584.5 7.64L587.17 25.79L592.43 25.79L588.81 6.19L580.1 6.19ZM672.6 21.97L667.99 6.19L660.71 6.19L660.71 25.59L665.52 25.59L665.24 9.3L670.2 25.59L677.18 25.59L677.18 6.19L672.34 6.19L672.6 21.97ZM628.08 11.29C628 10.9 628.02 10.49 628.07 10.28C628.08 10.22 628.09 10.16 628.11 10.1L628.14 10.02C628.34 9.47 628.79 8.96 629.84 8.96C630.98 8.96 631.64 9.67 631.64 10.73L631.64 11.93L636.47 11.93L636.47 10.56C636.47 7.48 634.45 6.29 632.3 5.87L632.12 5.84L631.94 5.81L631.76 5.79L631.59 5.76L631.41 5.74L631.23 5.73C631.17 5.72 631.11 5.72 631.06 5.71L630.88 5.7L630.71 5.69L630.53 5.68L630.36 5.68L630.19 5.67L629.94 5.67L629.83 5.67L629.61 5.68C629.58 5.68 629.54 5.68 629.51 5.68L629.29 5.69C629.22 5.69 629.15 5.69 629.08 5.7L628.86 5.71C625.92 5.94 623.61 7.15 623.15 9.99C623.02 10.85 622.98 11.62 623.2 12.6C623.54 14.21 624.88 15.36 626.42 16.32L626.66 16.47C626.7 16.49 626.74 16.51 626.78 16.54L627.02 16.68L627.27 16.82L627.51 16.96L627.88 17.16L628.84 17.69L629.07 17.82L629.3 17.95L629.53 18.08L629.75 18.21C630.8 18.83 631.64 19.46 631.94 20.22C632.11 20.67 632.07 21.24 631.99 21.6L631.98 21.66C631.96 21.75 631.93 21.83 631.9 21.92L631.87 22C631.64 22.52 631.16 22.97 630.09 22.97C628.87 22.97 628.13 22.27 628.13 21.21L628.13 19.33L622.93 19.33L622.93 20.82C622.93 24.33 625.16 25.86 627.95 26.31L628.15 26.34C628.29 26.36 628.43 26.38 628.57 26.39L628.79 26.41C629.04 26.44 629.29 26.45 629.54 26.46L629.76 26.46C629.8 26.46 629.83 26.46 629.87 26.46L629.98 26.46C630.05 26.46 630.13 26.46 630.2 26.46L630.42 26.46C630.45 26.46 630.49 26.46 630.52 26.45L630.74 26.45C630.81 26.44 630.88 26.44 630.95 26.43L631.16 26.42C631.3 26.4 631.43 26.39 631.57 26.37L631.77 26.35L631.97 26.32C632.04 26.31 632.11 26.3 632.17 26.28L632.37 26.25C634.73 25.77 636.49 24.49 636.84 22.02C636.89 21.66 636.92 21.32 636.93 21.01L636.94 20.8C636.94 20.77 636.94 20.74 636.94 20.71L636.95 20.52L636.95 20.34L636.95 20.16L636.94 20L636.93 19.85C636.93 19.82 636.93 19.8 636.93 19.77L636.92 19.63L636.9 19.5L636.89 19.38L636.87 19.21L636.85 19.07L636.82 18.91L636.8 18.85C636.46 17.14 634.97 15.93 633.31 14.94L633.07 14.8L632.83 14.66L632.59 14.53L632.23 14.33L631.75 14.07L630.93 13.64L630.59 13.45C630.56 13.43 630.52 13.41 630.48 13.39L630.27 13.27L630.06 13.15C629.03 12.56 628.25 11.97 628.08 11.29ZM564.32 11.24C564.23 10.87 564.24 10.48 564.29 10.25L564.31 10.17L564.33 10.09C564.49 9.5 564.94 8.89 566.09 8.89C567.24 8.89 567.92 9.6 567.92 10.67L567.92 11.88L572.81 11.88L572.81 10.51C572.81 7.56 570.98 6.33 568.93 5.84L568.75 5.8C568.6 5.77 568.45 5.74 568.3 5.72L568.12 5.69L567.94 5.67L567.76 5.64L567.58 5.63C567.52 5.62 567.46 5.61 567.4 5.61L567.22 5.6L567.05 5.58L566.87 5.58L566.7 5.57L566.53 5.56L566.27 5.56L566.19 5.56C566.12 5.56 566.04 5.56 565.97 5.56L565.75 5.57C565.61 5.57 565.46 5.58 565.32 5.59L565.11 5.6C565.08 5.6 565.04 5.61 565.01 5.61L564.8 5.63C564.73 5.64 564.66 5.64 564.59 5.65L564.39 5.68C564.22 5.7 564.06 5.73 563.89 5.76L563.7 5.8L563.51 5.84L563.32 5.89C563.26 5.9 563.19 5.92 563.13 5.94L562.95 5.99C561.05 6.57 559.69 7.8 559.34 9.92C559.2 10.8 559.17 11.57 559.38 12.56C559.74 14.27 561.22 15.47 562.87 16.47L563.12 16.61C563.16 16.64 563.2 16.66 563.24 16.68L563.49 16.83L563.86 17.03L564.35 17.31L565.08 17.7L565.43 17.9L565.77 18.1L565.99 18.23C566.03 18.25 566.07 18.27 566.1 18.29L566.32 18.42C567.22 18.99 567.94 19.58 568.21 20.27C568.39 20.71 568.35 21.28 568.26 21.65L568.25 21.71C568.23 21.8 568.2 21.89 568.17 21.97L568.14 22.05C567.91 22.58 567.42 23.04 566.33 23.04C565.11 23.04 564.38 22.32 564.38 21.25L564.37 19.37L559.11 19.37L559.11 20.87C559.11 25.07 562.28 26.46 565.79 26.56L566.01 26.57L566.24 26.57L566.45 26.57C566.56 26.56 566.67 26.56 566.78 26.56L566.99 26.55C567.1 26.54 567.2 26.54 567.31 26.53L567.52 26.51L567.72 26.49C567.79 26.48 567.86 26.47 567.93 26.46L568.13 26.44C568.2 26.43 568.26 26.42 568.33 26.41L568.53 26.37C570.97 25.91 572.79 24.62 573.16 22.08C573.21 21.72 573.24 21.38 573.26 21.07L573.27 20.87L573.28 20.68C573.28 20.62 573.28 20.56 573.28 20.5L573.28 20.32L573.28 20.15L573.27 20L573.26 19.85L573.25 19.71L573.24 19.57L573.22 19.39L573.2 19.23L573.17 19.05L573.14 18.87C572.8 17.18 571.35 15.98 569.72 14.99L569.48 14.85C569.44 14.83 569.4 14.8 569.36 14.78L569.12 14.64L568.87 14.51L568.63 14.37L568.39 14.24L567.31 13.67L566.97 13.49L566.74 13.36L566.53 13.24L566.31 13.12C566.28 13.1 566.25 13.08 566.21 13.06L566.01 12.94C565.12 12.4 564.47 11.86 564.32 11.24Z" fill="#90A2B2" fill-opacity="1.000000" fill-rule="nonzero"/>
	<path id="Vector" d="M748.65 23.31C747.63 23.32 746.68 22.76 746.17 21.87C745.67 20.98 745.7 19.89 746.25 19.03L751.37 10.98C751.9 10.1 752.87 9.58 753.9 9.61C754.92 9.63 755.86 10.21 756.34 11.12C756.82 12.02 756.76 13.11 756.19 13.96L751.07 22C750.54 22.82 749.63 23.32 748.65 23.31Z" fill="#90A2B2" fill-opacity="1.000000" fill-rule="nonzero"/>
	<path id="Vector" d="M757.44 23.31C756.41 23.31 755.46 22.76 754.96 21.87C754.46 20.99 754.49 19.9 755.04 19.04L760.15 11.01C760.68 10.12 761.65 9.58 762.68 9.61C763.72 9.63 764.67 10.22 765.14 11.13C765.62 12.04 765.55 13.13 764.96 13.98L759.85 22C759.32 22.82 758.42 23.32 757.44 23.31Z" fill="#90A2B2" fill-opacity="1.000000" fill-rule="nonzero"/>
	<path id="Vector" d="M768.67 20.8C768.67 22.23 767.49 23.38 766.03 23.38C764.57 23.38 763.39 22.23 763.39 20.8C763.39 19.37 764.57 18.22 766.03 18.22C767.49 18.22 768.67 19.37 768.67 20.8Z" fill="#90A2B2" fill-opacity="1.000000" fill-rule="evenodd"/>
	<path id="Vector" d="M880.6 18.37C881.4 18.37 881.88 18.93 881.88 19.86L881.88 23.04L882.96 23.04L882.96 19.79C882.96 18.21 882.22 17.29 880.82 17.29C880.27 17.29 879.4 17.44 878.88 18.45C878.64 17.85 878.08 17.42 877.43 17.35C877.23 17.32 877.03 17.31 876.83 17.32C876.38 17.35 875.59 17.63 875.29 18.26L875.29 17.41L874.21 17.41L874.21 23.04L875.29 23.04L875.29 20C875.29 18.82 876.06 18.37 876.84 18.37C877.56 18.37 878.04 18.92 878.04 19.85L878.04 23.04L879.12 23.04L879.12 20C879.12 19.06 879.68 18.35 880.6 18.37ZM870.23 22.1C870.73 22.11 871.21 21.91 871.55 21.56C871.9 21.2 872.08 20.71 872.07 20.21C872.07 19.08 871.23 18.37 870.23 18.37C869.23 18.37 868.4 19.08 868.4 20.21C868.38 20.71 868.57 21.2 868.91 21.55C869.26 21.91 869.73 22.11 870.22 22.1L870.23 22.1ZM870.23 23.16C868.65 23.16 867.33 21.99 867.33 20.2C867.33 18.42 868.65 17.29 870.23 17.29C871.82 17.29 873.15 18.42 873.15 20.2C873.15 21.99 871.81 23.16 870.23 23.16L870.23 23.16ZM861.76 20.2L861.75 20.21C861.75 18.43 863.1 17.29 864.7 17.29C865.5 17.27 866.28 17.6 866.84 18.19L866.02 18.89C865.66 18.54 865.19 18.35 864.7 18.36C863.7 18.36 862.83 19.07 862.83 20.2C862.83 20.97 863.28 21.66 863.98 21.95C864.68 22.24 865.48 22.08 866.02 21.54L866.85 22.24C866.29 22.84 865.51 23.17 864.7 23.16C863.11 23.16 861.76 21.99 861.76 20.2ZM858.29 21.96C858.29 21.76 858.37 21.57 858.5 21.43C858.64 21.29 858.83 21.21 859.03 21.2C859.23 21.21 859.42 21.29 859.56 21.43C859.7 21.57 859.77 21.76 859.77 21.96C859.75 22.36 859.43 22.67 859.03 22.67C858.64 22.67 858.31 22.36 858.29 21.96Z" fill="#90A2B2" fill-opacity="1.000000" fill-rule="nonzero"/>
	<path id="Vector" d="M861.25 10.26L857.4 10.26L854.7 17.23L852.01 10.26L848.16 10.26L852.84 21.27L849.93 28.55L853.75 28.55L861.25 10.26ZM837.81 16.39C837.81 18.14 839.35 19.3 840.86 19.3C842.34 19.3 843.8 18.22 843.8 16.38C843.8 14.54 842.34 13.47 840.86 13.47C839.35 13.47 837.81 14.63 837.81 16.38L837.81 16.39ZM843.8 22.53L843.8 21.14C843.02 22.32 841.2 22.77 840.26 22.77C837.16 22.77 834.07 20.33 834.07 16.38C834.07 12.44 837.16 10 840.26 10C841.04 10 842.87 10.26 843.8 11.63L843.8 10.27L847.39 10.27L847.39 22.53L843.8 22.53L843.8 22.53ZM833.04 22.53L829.45 22.53L829.45 21.01C828.85 22.14 827.4 22.79 825.88 22.79C822.76 22.79 820 20.3 820 16.43C820 12.5 822.76 10 825.88 10C827.39 10 828.85 10.63 829.45 11.76L829.45 3.58L833.04 3.58L833.04 22.53ZM829.37 16.36C829.37 14.52 828.05 13.44 826.56 13.44C825.03 13.44 823.75 14.6 823.75 16.36C823.75 18.17 825.03 19.32 826.56 19.32C828.07 19.33 829.37 18.12 829.37 16.36ZM811.12 16.04C811.12 14.18 812.08 13.55 813.36 13.55C814.58 13.55 815.47 14.36 815.47 15.99L815.47 22.53L819.08 22.53L819.08 15.2C819.08 11.71 817.37 10 814.63 10C813.2 10 811.77 10.81 811.12 12.05L811.12 10.26L807.5 10.26L807.5 22.53L811.12 22.53L811.12 16.04ZM800.15 22.74C796.72 22.74 793.85 20.22 793.85 16.36C793.85 12.49 796.71 10 800.15 10C803.59 10 806.48 12.49 806.48 16.36C806.48 20.22 803.59 22.74 800.15 22.74L800.15 22.74ZM800.15 19.17C801.66 19.17 802.91 18.06 802.91 16.36C802.91 14.7 801.66 13.57 800.15 13.57C799.42 13.56 798.71 13.85 798.2 14.38C797.68 14.9 797.4 15.62 797.42 16.36C797.42 18.07 798.67 19.17 800.15 19.17ZM787.36 13.55C788.43 13.55 789.37 14.39 789.37 15.99L789.37 22.53L792.96 22.53L792.96 15.57C792.96 11.86 791.16 10 788.27 10C787.42 10 785.8 10.26 784.63 12.18C783.95 10.76 782.65 10.02 780.73 10.02C779.36 10.02 778.12 10.81 777.55 12.05L777.55 10.27L773.93 10.27L773.93 22.53L777.55 22.53L777.55 16.04C777.55 14.18 778.57 13.55 779.66 13.55C780.7 13.55 781.64 14.36 781.66 15.91L781.66 22.53L785.28 22.53L785.28 16.04C785.28 14.26 786.22 13.55 787.36 13.55L787.36 13.55Z" fill="#90A2B2" fill-opacity="1.000000" fill-rule="nonzero"/>
	<path id="Vector" d="M957.26 17.06L957.28 17.07L959.17 17.26C959.31 17.28 959.43 17.34 959.52 17.45L959.53 17.46L959.51 17.47C959.6 17.58 959.64 17.73 959.62 17.87C959.21 21.16 957.65 24.2 955.21 26.46C952.69 28.8 949.37 30.1 945.93 30.1C944.26 30.1 942.6 29.8 941.04 29.19L940.95 29.16C940.82 29.11 940.72 29.02 940.67 28.89L940.66 28.87C940.61 28.75 940.6 28.61 940.65 28.48L941.4 26.66C941.5 26.4 941.79 26.27 942.05 26.36L942.06 26.37C945.89 27.85 950.22 27.01 953.23 24.23C955.14 22.47 956.37 20.09 956.71 17.52C956.75 17.25 956.98 17.06 957.24 17.06L957.26 17.06ZM1002.04 9.32C1003.65 9.32 1004.92 9.81 1005.72 10.76L1005.75 10.79L1005.75 9.99C1005.76 9.76 1005.93 9.58 1006.16 9.56L1006.17 9.56L1008.33 9.56C1008.55 9.58 1008.73 9.75 1008.75 9.97L1008.75 9.99L1008.75 21.96C1008.82 23.65 1008.3 25.31 1007.28 26.66C1006.12 28.07 1004.35 28.79 1002.04 28.79C998.81 28.79 996.26 26.75 995.84 23.83C995.82 23.62 995.95 23.43 996.15 23.36L996.17 23.36L998.28 22.86C998.29 22.86 998.3 22.86 998.31 22.86C998.54 22.82 998.76 22.98 998.79 23.21C998.98 24.85 1000.39 26.07 1002.04 26.03C1004.53 26.03 1005.7 24.76 1005.72 22.11L1005.72 22.03L1005.72 20.98C1004.79 22.03 1003.44 22.61 1002.04 22.56C998.45 22.56 995.85 19.78 995.85 15.95C995.82 14.23 996.42 12.56 997.55 11.26C998.7 10 1000.33 9.29 1002.04 9.32ZM937.12 23.88L937.15 23.88L937.17 23.88C938.03 23.89 938.73 24.58 938.74 25.44L938.74 25.47C938.74 25.48 938.74 25.49 938.74 25.5C938.72 26.37 938 27.07 937.12 27.06C936.24 27.04 935.54 26.32 935.56 25.44C935.57 24.58 936.27 23.89 937.12 23.88ZM1039.37 9.15L1039.48 9.15C1043.32 9.2 1045.72 11.89 1045.72 16.18C1045.72 16.41 1045.71 16.63 1045.68 16.86C1045.67 17.07 1045.5 17.23 1045.29 17.24L1045.27 17.24L1036.11 17.24C1036.17 19.16 1037.76 20.68 1039.68 20.65C1041.17 20.75 1042.53 19.8 1042.96 18.37C1043.04 18.16 1043.26 18.05 1043.47 18.11L1043.49 18.12L1045.31 18.76C1045.42 18.79 1045.5 18.86 1045.55 18.96L1045.55 18.98C1045.6 19.07 1045.61 19.19 1045.57 19.29C1044.73 21.81 1042.34 23.47 1039.68 23.39C1037.93 23.41 1036.27 22.73 1035.04 21.51C1033.68 20.09 1032.97 18.19 1033.04 16.23C1033.04 11.84 1036.19 9.2 1039.28 9.15L1039.37 9.15ZM987.54 9.15L987.55 9.15C991.47 9.15 993.9 11.84 993.9 16.18C993.9 16.41 993.89 16.63 993.87 16.86C993.85 17.07 993.68 17.23 993.47 17.24L993.45 17.24L984.3 17.24C984.35 19.17 985.95 20.69 987.88 20.65C989.37 20.75 990.73 19.8 991.16 18.37C991.23 18.16 991.46 18.05 991.67 18.11L991.68 18.12L993.51 18.76C993.62 18.79 993.71 18.87 993.75 18.98C993.79 19.08 993.79 19.19 993.75 19.29C992.9 21.81 990.51 23.47 987.86 23.39C986.12 23.41 984.44 22.73 983.21 21.51C981.86 20.09 981.14 18.19 981.21 16.23C981.21 11.8 984.43 9.15 987.54 9.15ZM973.67 9.15C975.43 9.15 976.86 9.57 977.91 10.42C978.62 10.98 979.15 11.75 979.43 12.62L979.43 12.62C979.46 12.77 979.38 12.92 979.23 12.96L979.22 12.97L977.03 13.69C976.94 13.73 976.83 13.73 976.73 13.69C976.65 13.65 976.59 13.58 976.56 13.49L976.55 13.45C976.35 12.74 975.7 11.6 973.67 11.6C972.23 11.6 971.37 12.42 971.37 13.23L971.37 13.26C971.38 13.78 971.66 14.43 972.91 14.68L972.94 14.69L975.35 15.14C978.01 15.67 979.54 17.12 979.57 19.13L979.57 19.19L979.56 19.16L979.56 19.22C979.52 21.23 977.57 23.36 973.97 23.36C969.76 23.36 968.11 20.97 967.81 19.57C967.79 19.42 967.88 19.28 968.02 19.24L968.03 19.24L970.28 18.53C970.32 18.53 970.36 18.53 970.4 18.53C970.46 18.53 970.52 18.55 970.57 18.57L970.59 18.58C970.67 18.62 970.73 18.69 970.76 18.78C971.04 20.13 972.26 20.94 974.02 20.94C975.65 20.94 976.39 20.08 976.39 19.31C976.39 18.54 975.75 17.97 974.63 17.74L974.59 17.73L972.07 17.24C969.71 16.8 968.24 15.33 968.24 13.43C968.24 11.11 970.73 9.15 973.67 9.15ZM1064.49 5.4L1066.46 5.4C1066.68 5.41 1066.87 5.6 1066.88 5.83L1066.88 5.85L1066.88 9.54L1069.25 9.54C1069.48 9.56 1069.66 9.75 1069.67 9.97L1069.67 9.99L1069.67 11.96L1069.67 11.97C1069.66 12.19 1069.48 12.37 1069.26 12.38L1069.25 12.38L1066.88 12.38L1066.88 18.95C1066.88 20.04 1067.31 20.49 1068.42 20.49C1068.65 20.49 1068.87 20.47 1069.1 20.44L1069.18 20.43C1069.3 20.41 1069.43 20.44 1069.52 20.52C1069.61 20.6 1069.66 20.71 1069.67 20.83L1069.67 20.85L1069.67 22.7C1069.67 22.89 1069.55 23.05 1069.36 23.11C1068.85 23.25 1068.31 23.33 1067.77 23.33L1067.69 23.33C1065.35 23.33 1063.88 21.83 1063.85 19.41L1063.85 19.34L1063.85 12.41L1061.8 12.41C1061.57 12.4 1061.4 12.22 1061.38 12L1061.38 11.98L1061.38 10.01C1061.38 9.78 1061.56 9.58 1061.79 9.56L1061.8 9.56L1062.36 9.56L1062.41 9.56C1063.06 9.54 1064.04 9.28 1064.06 7.84L1064.06 7.8L1064.06 5.85C1064.06 5.61 1064.24 5.42 1064.47 5.4L1064.49 5.4ZM1026.24 9.15L1026.3 9.15L1026.29 9.15C1028.61 9.15 1030.94 10.77 1031 14.29L1031 14.4L1031 22.74C1030.99 22.96 1030.81 23.14 1030.59 23.17L1030.56 23.17L1028.42 23.17C1028.18 23.15 1028.01 22.98 1027.99 22.76L1027.99 22.74L1027.99 14.67L1027.99 14.61C1027.98 13.58 1027.63 11.93 1025.51 11.93C1023.95 11.93 1022.83 13.15 1022.81 14.92L1022.81 14.97L1022.81 22.74C1022.8 22.96 1022.63 23.14 1022.41 23.17L1022.39 23.17L1020.2 23.17C1019.98 23.15 1019.8 22.98 1019.78 22.76L1019.78 22.74L1019.78 14.67L1019.78 14.61C1019.77 13.58 1019.42 11.93 1017.3 11.93C1015.67 11.93 1014.57 13.14 1014.55 14.94L1014.55 15L1014.55 22.74C1014.54 22.96 1014.36 23.14 1014.14 23.17L1014.13 23.17L1011.97 23.17C1011.75 23.15 1011.57 22.98 1011.55 22.76L1011.55 22.74L1011.55 9.96C1011.56 9.74 1011.73 9.56 1011.95 9.53L1011.97 9.53L1014.04 9.53C1014.27 9.55 1014.45 9.72 1014.47 9.94L1014.47 9.96L1014.47 10.73C1015.4 9.71 1016.73 9.13 1018.11 9.15C1019.72 9.1 1021.22 9.95 1022 11.35C1022.93 9.93 1024.54 9.09 1026.24 9.15ZM1058.54 10.74C1059.37 11.83 1059.79 13.17 1059.75 14.53L1059.75 14.59L1059.75 22.74C1059.74 22.96 1059.56 23.14 1059.35 23.17L1059.32 23.17L1057.14 23.17C1056.92 23.15 1056.74 22.98 1056.72 22.76L1056.72 22.74L1056.72 15.03C1056.72 13.01 1055.77 11.98 1053.97 11.98C1053.17 11.96 1052.41 12.31 1051.92 12.94C1051.43 13.62 1051.19 14.44 1051.22 15.28L1051.22 15.33L1051.22 22.74C1051.21 22.96 1051.03 23.14 1050.81 23.17L1050.8 23.17L1048.62 23.17C1048.39 23.15 1048.21 22.98 1048.18 22.76L1048.18 22.74L1048.18 9.95C1048.19 9.73 1048.38 9.55 1048.6 9.53L1048.62 9.52L1050.75 9.52C1050.97 9.54 1051.14 9.71 1051.16 9.93L1051.16 9.95L1051.16 10.85C1052.07 9.75 1053.44 9.12 1054.88 9.15C1056.28 9.09 1057.63 9.68 1058.54 10.74ZM933.04 17.61L948.54 17.61C948.82 17.61 949.05 17.84 949.06 18.12L949.06 18.14L949.06 20.08C949.06 20.37 948.84 20.6 948.56 20.61L948.54 20.61L933.04 20.61C932.75 20.61 932.52 20.38 932.51 20.1L932.51 20.08L932.51 18.14L932.51 18.12C932.52 17.85 932.74 17.62 933.02 17.61L933.04 17.61ZM1002.41 12.01C1000.28 12.01 998.93 13.52 998.93 15.95C998.93 18.39 1000.27 19.89 1002.41 19.89C1004.45 19.89 1005.83 18.31 1005.83 15.95C1005.83 13.59 1004.45 12.01 1002.41 12.01ZM984.39 14.64L984.39 14.69L990.79 14.69C990.64 12.98 989.43 11.91 987.62 11.89L987.57 11.89C985.98 11.86 984.62 13.03 984.4 14.59L984.39 14.64ZM1036.23 14.64L1036.22 14.69L1042.63 14.69C1042.47 12.98 1041.27 11.91 1039.46 11.89L1039.4 11.89C1037.81 11.86 1036.46 13.03 1036.23 14.59L1036.23 14.64ZM950.48 2.8C950.61 2.85 950.72 2.95 950.78 3.08C950.84 3.21 950.84 3.36 950.78 3.49L950.11 5.29C950.01 5.56 949.72 5.7 949.45 5.61C945.91 4.37 941.99 5.07 939.1 7.46C937.29 8.97 936.02 11.01 935.44 13.28C935.38 13.51 935.17 13.68 934.94 13.68L934.82 13.68L932.96 13.23C932.83 13.2 932.71 13.11 932.64 12.99L932.63 12.99C932.55 12.86 932.53 12.72 932.57 12.58C933.3 9.66 934.95 7.05 937.27 5.14C940.96 2.1 945.97 1.21 950.48 2.8ZM943.61 10.58L959.12 10.58C959.39 10.58 959.62 10.8 959.64 11.08L959.64 11.1L959.64 13.04C959.64 13.32 959.42 13.56 959.13 13.57L959.12 13.57L943.61 13.57C943.33 13.56 943.1 13.34 943.1 13.05L943.1 13.04L943.1 11.11C943.09 10.83 943.31 10.6 943.59 10.58L943.61 10.58ZM954.38 4.66L954.4 4.66L954.43 4.66C955.29 4.67 955.98 5.37 955.99 6.22L955.99 6.25C955.99 6.26 955.99 6.27 955.99 6.28C955.98 7.16 955.25 7.85 954.37 7.84C953.5 7.82 952.8 7.1 952.81 6.22C952.83 5.36 953.52 4.67 954.38 4.66Z" fill="#90A2B2" fill-opacity="1.000000" fill-rule="nonzero"/>
	<path id="Vector" d="M1119.52 24.32C1119.36 24.23 1119.22 23.99 1119.22 23.81L1119.22 8.32C1119.22 8.13 1119.36 7.9 1119.52 7.81L1133.1 0.07C1133.27 -0.03 1133.54 -0.03 1133.69 0.07L1147.28 7.81C1147.44 7.9 1147.57 8.13 1147.57 8.32L1147.57 23.81C1147.57 24 1147.44 24.23 1147.28 24.32L1133.69 32.06C1133.54 32.16 1133.27 32.16 1133.1 32.06L1119.52 24.32ZM1160.34 9.86L1160.34 16.14L1163.02 16.14C1164.97 16.14 1165.84 15.35 1165.84 14.05L1165.84 11.96C1165.84 10.66 1164.97 9.86 1163.02 9.86L1160.34 9.86ZM1160.34 18.14L1160.34 23.75C1160.34 24.08 1160.25 24.23 1159.94 24.23L1158.63 24.23C1158.34 24.23 1158.24 24.08 1158.24 23.75L1158.24 8.35C1158.24 8.01 1158.34 7.87 1158.63 7.87L1163.02 7.87C1166.75 7.87 1167.93 9.6 1167.93 11.57L1167.93 14.44C1167.93 16.41 1166.75 18.14 1163.02 18.14L1160.34 18.14ZM1172.81 9.86L1172.81 15.76L1175.51 15.76C1177.46 15.76 1178.32 14.99 1178.32 13.67L1178.32 11.96C1178.32 10.66 1177.46 9.86 1175.51 9.86L1172.81 9.86ZM1172.81 17.76L1172.81 23.75C1172.81 24.08 1172.74 24.23 1172.43 24.23L1171.11 24.23C1170.82 24.23 1170.72 24.08 1170.72 23.75L1170.72 8.35C1170.72 8.01 1170.82 7.87 1171.11 7.87L1175.51 7.87C1179.23 7.87 1180.43 9.6 1180.43 11.57L1180.43 14.07C1180.43 15.54 1179.75 16.87 1177.89 17.44L1180.49 23.75C1180.6 24.04 1180.4 24.23 1180.1 24.23L1178.8 24.23C1178.5 24.23 1178.46 24.04 1178.32 23.75L1175.88 17.76L1172.81 17.76ZM1191.81 11.76C1191.81 10.47 1190.9 9.67 1188.84 9.67C1186.8 9.67 1185.89 10.47 1185.89 11.76L1185.89 20.33C1185.89 21.63 1186.8 22.42 1188.84 22.42C1190.9 22.42 1191.81 21.63 1191.81 20.33L1191.81 11.76ZM1183.65 11.38C1183.65 9.41 1184.93 7.67 1188.84 7.67C1192.77 7.67 1194.05 9.41 1194.05 11.38L1194.05 20.72C1194.05 22.69 1192.77 24.42 1188.84 24.42C1184.93 24.42 1183.65 22.69 1183.65 20.72L1183.65 11.38ZM1206.12 7.87C1206.42 7.87 1206.55 7.99 1206.55 8.32L1206.55 9.41C1206.55 9.74 1206.42 9.86 1206.12 9.86L1202.46 9.86L1202.46 23.75C1202.46 24.08 1202.35 24.23 1202.05 24.23L1200.63 24.23C1200.34 24.23 1200.22 24.08 1200.22 23.75L1200.22 9.86L1196.56 9.86C1196.24 9.86 1196.13 9.74 1196.13 9.41L1196.13 8.32C1196.13 7.99 1196.24 7.87 1196.56 7.87L1206.12 7.87ZM1216.77 11.76C1216.77 10.47 1215.86 9.67 1213.8 9.67C1211.77 9.67 1210.85 10.47 1210.85 11.76L1210.85 20.33C1210.85 21.63 1211.77 22.42 1213.8 22.42C1215.86 22.42 1216.77 21.63 1216.77 20.33L1216.77 11.76ZM1208.61 11.38C1208.61 9.41 1209.89 7.67 1213.8 7.67C1217.73 7.67 1219.01 9.41 1219.01 11.38L1219.01 20.72C1219.01 22.69 1217.73 24.42 1213.8 24.42C1209.89 24.42 1208.61 22.69 1208.61 20.72L1208.61 11.38ZM1232.24 23.77C1232.24 24.08 1232.16 24.23 1231.85 24.23L1230.66 24.23C1230.43 24.23 1230.36 24.16 1230.27 24.01L1225.18 14.1C1224.71 13.21 1224.44 12.46 1224.4 12.37L1224.4 23.77C1224.4 24.08 1224.29 24.23 1224.01 24.23L1222.8 24.23C1222.52 24.23 1222.41 24.08 1222.41 23.77L1222.41 8.32C1222.41 8.01 1222.52 7.87 1222.8 7.87L1224.01 7.87C1224.18 7.87 1224.29 7.94 1224.36 8.06L1229.57 18.19C1229.88 18.77 1230.25 19.73 1230.25 19.73L1230.25 8.32C1230.25 8.01 1230.38 7.87 1230.66 7.87L1231.85 7.87C1232.16 7.87 1232.24 8.01 1232.24 8.32L1232.24 23.77ZM1235.97 24.23C1235.68 24.23 1235.57 24.08 1235.57 23.75L1235.57 8.35C1235.57 8.01 1235.68 7.87 1235.97 7.87L1243.37 7.87C1243.65 7.87 1243.78 7.99 1243.78 8.32L1243.78 9.41C1243.78 9.74 1243.65 9.86 1243.37 9.86L1237.68 9.86L1237.68 14.72L1242.98 14.72C1243.29 14.72 1243.42 14.84 1243.42 15.18L1243.42 16.22C1243.42 16.53 1243.29 16.67 1242.98 16.67L1237.68 16.67L1237.68 22.23L1243.61 22.23C1243.89 22.23 1244.02 22.33 1244.02 22.66L1244.02 23.77C1244.02 24.11 1243.89 24.23 1243.61 24.23L1235.97 24.23ZM1255.96 7.87C1256.24 7.87 1256.37 7.99 1256.37 8.32L1256.37 9.41C1256.37 9.74 1256.24 9.86 1255.96 9.86L1252.49 9.86L1252.49 23.75C1252.49 24.08 1252.39 24.23 1252.1 24.23L1250.76 24.23C1250.48 24.23 1250.37 24.08 1250.37 23.75L1250.37 9.86L1246.91 9.86C1246.6 9.86 1246.49 9.74 1246.49 9.41L1246.49 8.32C1246.49 7.99 1246.6 7.87 1246.91 7.87L1255.96 7.87Z" fill="#90A2B2" fill-opacity="1.000000" fill-rule="nonzero"/>
</svg>
