<svg width="16" height="16" viewBox="0 0 16 16" fill="none" xmlns="http://www.w3.org/2000/svg">
<path d="M13.1935 9.95338C11.8201 11.32 9.85345 11.74 8.12678 11.2L4.98678 14.3334C4.76012 14.5667 4.31345 14.7067 3.99345 14.66L2.54012 14.46C2.06012 14.3934 1.61345 13.94 1.54012 13.46L1.34012 12.0067C1.29345 11.6867 1.44678 11.24 1.66678 11.0134L4.80012 7.88005C4.26678 6.14671 4.68012 4.18005 6.05345 2.81338C8.02012 0.846712 11.2135 0.846712 13.1868 2.81338C15.1601 4.78005 15.1601 7.98671 13.1935 9.95338Z" stroke="#90A2B2" stroke-miterlimit="10" stroke-linecap="round" stroke-linejoin="round"/>
<path d="M4.59344 11.6599L6.12678 13.1932" stroke="#90A2B2" stroke-miterlimit="10" stroke-linecap="round" stroke-linejoin="round"/>
<path d="M9.66669 7.33325C10.219 7.33325 10.6667 6.88554 10.6667 6.33325C10.6667 5.78097 10.219 5.33325 9.66669 5.33325C9.1144 5.33325 8.66669 5.78097 8.66669 6.33325C8.66669 6.88554 9.1144 7.33325 9.66669 7.33325Z" stroke="#90A2B2" stroke-linecap="round" stroke-linejoin="round"/>
</svg>
