<svg width="24.000000" height="24.000000" viewBox="0 0 24 24" fill="none" xmlns="http://www.w3.org/2000/svg" xmlns:xlink="http://www.w3.org/1999/xlink">
	<desc>
			Created with Pixso.
	</desc>
	<defs/>
	<path id="Vector" d="M14.79 12.26C11.96 12.26 9.66 9.96 9.66 7.12C9.66 4.29 11.96 2 14.79 2C17.63 2 19.92 4.29 19.92 7.12C19.92 9.96 17.63 12.26 14.79 12.26Z" stroke="#5C7184" stroke-opacity="1.000000" stroke-width="1.000000"/>
	<path id="Vector" d="M5.56 19.43C3.86 19.43 2.48 18.06 2.48 16.36C2.48 14.65 3.86 13.28 5.56 13.28C7.26 13.28 8.64 14.65 8.64 16.36C8.64 18.06 7.26 19.43 5.56 19.43Z" stroke="#5C7184" stroke-opacity="1.000000" stroke-width="1.000000"/>
	<path id="Vector" d="M15.82 22C14.41 22 13.26 20.85 13.26 19.43C13.26 18.02 14.41 16.87 15.82 16.87C17.24 16.87 18.38 18.02 18.38 19.43C18.38 20.85 17.24 22 15.82 22Z" stroke="#5C7184" stroke-opacity="1.000000" stroke-width="1.000000"/>
	<g opacity="0.000000"/>
	<g opacity="0.000000"/>
</svg>
