<svg width="31.000000" height="30.000000" viewBox="0 0 31 30" fill="none" xmlns="http://www.w3.org/2000/svg" xmlns:xlink="http://www.w3.org/1999/xlink">
	<desc>
			Created with Pixso.
	</desc>
	<defs>
		<clipPath id="clip350_22575">
			<rect id="logos:google-play-icon" width="30.539522" height="30.539522" transform="translate(-0.099121 -0.661621)" fill="white" fill-opacity="0"/>
		</clipPath>
	</defs>
	<rect id="logos:google-play-icon" width="30.539522" height="30.539522" transform="translate(-0.099121 -0.661621)" fill="#FFFFFF" fill-opacity="0"/>
	<g clip-path="url(#clip350_22575)">
		<path id="Vector" d="M22.41 19.27C26.27 17.28 29.2 15.77 29.46 15.65C30.26 15.25 31.1 14.19 29.46 13.36C28.93 13.1 26.07 11.63 22.41 9.74L17.33 14.54L22.41 19.27L22.41 19.27Z" fill="#FFD900" fill-opacity="1.000000" fill-rule="nonzero"/>
		<path id="Vector" d="M17.33 14.54L1.16 29.79C1.54 29.84 1.97 29.75 2.47 29.49C3.53 28.94 14.78 23.2 22.41 19.27L17.33 14.54Z" fill="#F43249" fill-opacity="1.000000" fill-rule="nonzero"/>
		<path id="Vector" d="M17.33 14.54L22.41 9.76C22.41 9.76 3.61 0.16 2.48 -0.4C2.05 -0.64 1.57 -0.71 1.14 -0.64L17.33 14.54Z" fill="#00EE76" fill-opacity="1.000000" fill-rule="nonzero"/>
		<path id="Vector" d="M17.33 14.54L1.14 -0.64C0.48 -0.5 -0.08 0.05 -0.08 1.16L-0.08 28C-0.08 29.01 0.35 29.75 1.16 29.82L17.33 14.54Z" fill="#00D3FF" fill-opacity="1.000000" fill-rule="nonzero"/>
	</g>
</svg>
