<svg width="168.000000" height="45.000000" viewBox="0 0 168 45" fill="none" xmlns="http://www.w3.org/2000/svg" xmlns:xlink="http://www.w3.org/1999/xlink">
	<desc>
			Created with Pixso.
	</desc>
	<defs/>
	<path id="Tradiant." d="M106.23 27.66L106.23 29.16L109.96 29.16L109.96 10.4L106.23 10.4L106.23 17.88C105.88 17.52 105.5 17.2 105.06 16.94C104.23 16.43 103.31 16.17 102.3 16.17C101.27 16.17 100.3 16.43 99.4 16.94C98.5 17.44 97.77 18.18 97.21 19.16Q96.39 20.62 96.39 22.72C96.39 24.19 96.66 25.42 97.2 26.42C97.75 27.42 98.47 28.18 99.36 28.69C100.26 29.19 101.24 29.44 102.3 29.44C103.33 29.44 104.27 29.17 105.1 28.63C105.52 28.35 105.89 28.03 106.23 27.66ZM106.23 23.23L106.23 22.18C106.23 21.58 106.08 21.07 105.79 20.64C105.51 20.2 105.13 19.87 104.68 19.64C104.22 19.4 103.75 19.28 103.25 19.28C102.43 19.28 101.71 19.56 101.11 20.11Q101.11 20.11 101.11 20.11Q100.21 20.93 100.21 22.72C100.21 23.92 100.51 24.81 101.11 25.38C101.72 25.94 102.43 26.22 103.25 26.22C103.76 26.22 104.25 26.1 104.7 25.86C105.16 25.61 105.53 25.26 105.81 24.81C106.09 24.36 106.23 23.84 106.23 23.23ZM112.98 13.88C113.41 14.18 113.91 14.34 114.49 14.34C115.07 14.34 115.58 14.19 116 13.89C116.43 13.59 116.65 13.16 116.65 12.6C116.65 12.04 116.43 11.6 116 11.3C115.58 11 115.07 10.84 114.49 10.84C113.91 10.84 113.41 11 112.98 11.3C112.55 11.6 112.34 12.04 112.34 12.6C112.34 13.15 112.55 13.58 112.98 13.88ZM65.92 14.34L70.27 14.34L70.27 11.46L57.87 11.46L57.87 14.34L62.21 14.34L62.21 29.16L65.92 29.16L65.92 14.34ZM154.09 29.29C154.61 29.38 155.11 29.42 155.6 29.42C156.01 29.42 156.36 29.39 156.67 29.32C156.97 29.27 157.21 29.2 157.37 29.13L157.37 26.34C157.25 26.38 157.07 26.43 156.83 26.48Q156.49 26.55 156.09 26.55Q155.49 26.55 155.23 26.25Q155.14 26.16 155.09 26.04C154.97 25.69 154.9 25.24 154.9 24.69L154.9 19.29L158.61 19.29L158.61 16.41L154.9 16.41L154.9 12.21L151.17 12.21L151.17 13.82C151.17 14.44 151.15 14.92 151.11 15.27C151.07 15.62 150.98 15.88 150.83 16.05C150.7 16.21 150.49 16.31 150.2 16.35C149.92 16.39 149.54 16.41 149.06 16.41L148.23 16.41L148.23 19.29L151.17 19.29L151.17 25.75C151.17 26.55 151.31 27.19 151.58 27.68C151.85 28.17 152.21 28.54 152.65 28.8C153.09 29.04 153.57 29.21 154.09 29.29ZM71.1 16.41L71.1 29.16L74.83 29.16L74.83 23.14C74.83 22.7 74.89 22.27 75 21.84C75.11 21.4 75.3 21.01 75.55 20.66C75.82 20.3 76.16 20.01 76.6 19.79Q77.24 19.47 78.2 19.47C78.6 19.47 78.92 19.52 79.16 19.6Q79.54 19.74 79.64 19.79L80.26 16.46C80.18 16.42 80 16.36 79.7 16.29C79.42 16.21 79.02 16.17 78.5 16.17C77.85 16.17 77.26 16.28 76.75 16.48C76.25 16.69 75.81 16.98 75.44 17.36C75.21 17.59 75.01 17.85 74.83 18.13L74.83 16.41L71.1 16.41ZM83.74 28.98C84.47 29.27 85.3 29.42 86.22 29.42C87.02 29.42 87.75 29.32 88.43 29.12C89.12 28.91 89.71 28.62 90.21 28.24C90.39 28.11 90.55 27.96 90.69 27.81C90.72 27.94 90.76 28.07 90.81 28.2C90.89 28.43 90.98 28.63 91.1 28.81C91.22 28.98 91.3 29.1 91.36 29.16L95.02 29.16C94.94 29.08 94.84 28.96 94.72 28.77C94.6 28.59 94.5 28.36 94.42 28.08C94.35 27.83 94.3 27.56 94.28 27.26C94.26 26.96 94.25 26.64 94.25 26.31L94.25 20.8C94.25 19.76 93.96 18.89 93.38 18.21Q93.32 18.14 93.26 18.08Q92.42 17.16 91.08 16.69Q89.66 16.17 87.98 16.17C86.78 16.17 85.7 16.36 84.75 16.72C83.8 17.08 83.04 17.62 82.48 18.32C81.93 19.02 81.65 19.89 81.65 20.91L85.31 20.91C85.31 20.28 85.54 19.81 85.98 19.51C86.44 19.2 87.1 19.04 87.95 19.04Q89.16 19.04 89.84 19.45C90.29 19.72 90.52 20.09 90.52 20.56L90.52 20.59C90.52 20.87 90.25 21.06 89.72 21.18C89.19 21.29 88.22 21.41 86.82 21.55C85.86 21.64 84.97 21.84 84.15 22.15C83.33 22.44 82.68 22.88 82.18 23.44C81.68 24.01 81.44 24.75 81.44 25.65Q81.44 26.68 81.89 27.44Q81.96 27.57 82.05 27.69C82.46 28.25 83.02 28.68 83.74 28.98ZM120.91 28.98C121.64 29.27 122.47 29.42 123.4 29.42Q124.58 29.42 125.6 29.12C126.29 28.91 126.88 28.62 127.38 28.24C127.56 28.11 127.72 27.96 127.86 27.81C127.9 27.94 127.94 28.07 127.98 28.2C128.06 28.43 128.16 28.63 128.27 28.81C128.39 28.98 128.48 29.1 128.53 29.16L132.19 29.16C132.11 29.08 132.01 28.96 131.89 28.77C131.77 28.59 131.67 28.36 131.59 28.08C131.52 27.83 131.47 27.56 131.45 27.26C131.43 26.96 131.42 26.64 131.42 26.31L131.42 20.8C131.42 19.76 131.13 18.89 130.55 18.21C129.97 17.53 129.21 17.02 128.26 16.69C127.3 16.34 126.27 16.17 125.15 16.17C123.95 16.17 122.87 16.36 121.92 16.72C120.97 17.08 120.21 17.62 119.65 18.32C119.1 19.02 118.82 19.89 118.82 20.91L122.48 20.91C122.48 20.28 122.71 19.81 123.16 19.51C123.61 19.2 124.27 19.04 125.12 19.04C125.93 19.04 126.56 19.18 127.01 19.45C127.46 19.72 127.69 20.09 127.69 20.56L127.69 20.59C127.69 20.87 127.42 21.06 126.89 21.18C126.36 21.29 125.4 21.41 124 21.55C123.04 21.64 122.14 21.84 121.32 22.15C120.5 22.44 119.85 22.88 119.35 23.44C118.86 24.01 118.61 24.75 118.61 25.65C118.61 26.45 118.81 27.13 119.22 27.69C119.63 28.25 120.19 28.68 120.91 28.98ZM143.12 23.74L143.12 29.16L146.83 29.16L146.83 21.18Q146.83 19.68 146.33 18.56C146 17.81 145.49 17.22 144.81 16.81C144.14 16.38 143.28 16.17 142.23 16.17C141.23 16.17 140.32 16.41 139.5 16.88C138.85 17.26 138.3 17.75 137.87 18.35L137.87 16.41L134.15 16.41L134.15 29.16L137.87 29.16L137.87 22.48C137.87 21.87 137.98 21.32 138.2 20.85C138.43 20.38 138.75 20.01 139.16 19.75Q139.2 19.72 139.24 19.7Q139.85 19.35 140.66 19.35C141.33 19.35 141.83 19.48 142.19 19.75C142.54 20.01 142.78 20.36 142.92 20.8Q143.12 21.45 143.12 22.24L143.12 23.74ZM112.65 16.41L112.65 29.16L116.34 29.16L116.34 16.41L112.65 16.41ZM88.85 26.32C88.35 26.53 87.8 26.64 87.22 26.64C86.54 26.64 86.03 26.53 85.68 26.31C85.34 26.09 85.17 25.76 85.17 25.32C85.17 24.85 85.37 24.52 85.77 24.33C86.18 24.13 86.79 23.99 87.6 23.91Q88.64 23.8 89.67 23.62C89.99 23.56 90.29 23.5 90.58 23.42L90.58 23.53C90.58 24.26 90.42 24.86 90.1 25.32C89.78 25.77 89.36 26.11 88.85 26.32ZM126.02 26.32C125.52 26.53 124.98 26.64 124.39 26.64C123.71 26.64 123.2 26.53 122.86 26.31C122.51 26.09 122.34 25.76 122.34 25.32C122.34 24.85 122.54 24.52 122.94 24.33Q123.55 24.03 124.78 23.91C125.46 23.84 126.15 23.74 126.84 23.62Q127.32 23.53 127.75 23.42L127.75 23.53C127.75 24.26 127.59 24.86 127.27 25.32C126.95 25.77 126.54 26.11 126.02 26.32ZM161.51 28.94C161.9 29.32 162.37 29.52 162.92 29.52C163.46 29.52 163.93 29.32 164.31 28.94C164.69 28.56 164.89 28.09 164.89 27.54C164.89 26.99 164.69 26.53 164.31 26.14C163.93 25.76 163.46 25.57 162.92 25.57C162.37 25.57 161.9 25.76 161.51 26.14C161.13 26.53 160.94 26.99 160.94 27.54C160.94 28.09 161.13 28.56 161.51 28.94Z" fill="#074C83" fill-opacity="1.000000" fill-rule="evenodd"/>
	<path id="Rectangle 4506" d="M29.34 5.83L41.1 17.96C42.36 19.26 43.06 20.99 43.06 22.79L43.06 36.33C43.06 39.3 39.45 40.77 37.38 38.63L25.61 26.5C24.35 25.2 23.65 23.47 23.65 21.67L23.65 8.13C23.65 5.16 27.27 3.69 29.34 5.83Z" fill="#0C7FDA" fill-opacity="1.000000" fill-rule="nonzero"/>
	<path id="Rectangle 4505" d="M17.31 5.36L28.79 17.2C30.23 18.68 31.03 20.66 31.03 22.73L31.03 35.86C31.03 38.83 27.41 40.3 25.34 38.16L13.58 26.03C12.32 24.74 11.62 23 11.62 21.2L11.62 7.66C11.62 4.69 15.24 3.22 17.31 5.36Z" fill="#2196F3" fill-opacity="1.000000" fill-rule="nonzero"/>
	<path id="Rectangle 4504" d="M5.68 5.83L17.45 17.96C18.7 19.25 19.41 20.99 19.41 22.79L19.41 36.33C19.41 39.3 15.79 40.77 13.72 38.63L1.95 26.5C0.7 25.2 0 23.47 0 21.67L0 8.13C0 5.16 3.61 3.69 5.68 5.83Z" fill="#6EBBF7" fill-opacity="1.000000" fill-rule="nonzero"/>
</svg>
